<svg width="900" height="522" viewBox="0 0 900 522" fill="none" xmlns="http://www.w3.org/2000/svg">
<mask id="mask0_204_371" style="mask-type:alpha" maskUnits="userSpaceOnUse" x="0" y="0" width="452" height="207">
<rect x="0.56958" y="0.466522" width="450.483" height="205.579" fill="#C4C4C4"/>
</mask>
<g mask="url(#mask0_204_371)">
<path d="M255.743 -34.9159L-230.616 123.457L-221.533 155.51L264.826 -2.86287L255.743 -34.9159Z" fill="#D31B83"/>
<path d="M255.743 -34.9159L-230.616 123.457L-221.533 155.51L264.826 -2.86287L255.743 -34.9159Z" fill="#D31B83"/>
<path d="M30.9384 40.1359L-229.945 124.512L-229.371 126.523L31.512 42.1471L30.9384 40.1359Z" fill="white"/>
<path d="M38.5207 66.6937L-222.363 151.07L-221.789 153.081L39.0943 68.705L38.5207 66.6937Z" fill="white"/>
<path d="M-2.39879 71.0042L-5.09991 71.9135L-3.63664 62.946L-0.93552 62.0367L-2.39879 71.0042Z" fill="white"/>
<path d="M255.977 -32.5664L-4.90649 51.8098L-4.33287 53.8211L256.55 -30.5551L255.977 -32.5664Z" fill="white"/>
<path d="M263.559 -6.00852L2.67578 78.3677L3.2494 80.3789L264.133 -3.99724L263.559 -6.00852Z" fill="white"/>
<path d="M218.472 -0.341889L215.777 0.560636L217.217 -8.41373L219.912 -9.31626L218.472 -0.341889Z" fill="white"/>
<path d="M173.462 14.199L170.768 15.1016L172.208 6.12722L174.904 5.22431L173.462 14.199Z" fill="white"/>
<path d="M177.639 12.8498L174.944 13.7523L176.384 4.77791L179.079 3.87539L177.639 12.8498Z" fill="white"/>
<path d="M188.704 6.8434L186.077 3.70984L184.314 4.30015L188.651 9.22078L189.949 8.78614L191.066 2.03968L189.301 2.63037L188.704 6.8434Z" fill="white"/>
<path d="M201.8 -1.58069C200.004 -0.979483 198.933 0.892654 199.405 2.60058C199.877 4.30967 201.713 5.20674 203.507 4.60592C204.895 4.14099 205.85 2.91614 205.994 1.59421L204.209 2.19203C203.986 2.6177 203.596 2.96904 203.101 3.13469C202.324 3.39482 201.533 3.12002 201.141 2.51209L205.992 0.887676C205.975 0.732415 205.944 0.577812 205.902 0.424655C205.841 0.204202 205.757 -0.00333245 205.654 -0.195587C204.956 -1.4906 203.362 -2.10396 201.8 -1.58069ZM200.911 1.3927C201.013 0.729859 201.504 0.125456 202.205 -0.109077C202.905 -0.34361 203.617 -0.142396 204.038 0.345387L200.911 1.3927Z" fill="white"/>
<path d="M194.956 0.603464C194.308 0.820568 193.761 1.22119 193.356 1.72788L192.745 -0.487825L191.287 0.552241L193.275 7.75676L194.796 7.24742L194.686 6.82776C195.3 7.0264 195.988 7.03758 196.668 6.8099C198.383 6.23524 199.391 4.37984 198.918 2.66686C198.446 0.952342 196.672 0.028799 194.956 0.603464ZM196.117 5.37104C195.221 5.67083 194.296 5.18862 194.05 4.29605C193.803 3.40232 194.329 2.43572 195.224 2.13593C196.118 1.83652 197.043 2.31718 197.29 3.21091C197.537 4.10464 197.012 5.07125 196.117 5.37104Z" fill="white"/>
<path d="M209.324 -2.35831L208.937 -3.75514L207.292 -3.20627L206.773 -5.07964L205.272 -4.01089L206.463 0.289666C206.941 2.01434 208.578 2.99409 210.399 2.38634L210.619 2.31303L210.207 0.828385C209.297 1.13226 208.36 0.645474 208.109 -0.259599L207.68 -1.80981L209.324 -2.35831Z" fill="white"/>
<path d="M128.454 28.7397L125.758 29.6426L127.198 20.6682L129.894 19.7653L128.454 28.7397Z" fill="white"/>
<path d="M132.631 27.3903L129.935 28.2932L131.375 19.3189L134.071 18.416L132.631 27.3903Z" fill="white"/>
<path d="M143.695 21.3843L141.068 18.2508L139.305 18.8411L143.642 23.7617L144.94 23.3271L146.056 16.5806L144.293 17.1709L143.695 21.3843Z" fill="white"/>
<path d="M156.79 12.9603C154.995 13.5615 153.924 15.4336 154.395 17.1415C154.867 18.8506 156.704 19.7477 158.498 19.1469C159.886 18.6819 160.841 17.4571 160.985 16.1351L159.2 16.733C158.977 17.1586 158.586 17.51 158.092 17.6756C157.315 17.9358 156.523 17.661 156.132 17.053L160.982 15.4286C160.965 15.2734 160.935 15.1188 160.893 14.9656C160.832 14.7451 160.748 14.5376 160.644 14.3454C159.947 13.0503 158.353 12.437 156.79 12.9603ZM155.903 15.9333C156.005 15.2704 156.496 14.666 157.196 14.4315C157.897 14.197 158.609 14.3982 159.03 14.886L155.903 15.9333Z" fill="white"/>
<path d="M149.948 15.1441C149.3 15.3612 148.752 15.7618 148.348 16.2685L147.736 14.0528L146.278 15.0928L148.267 22.2973L149.788 21.788L149.678 21.3683C150.292 21.567 150.98 21.5782 151.659 21.3505C153.375 20.7758 154.383 18.9204 153.91 17.2074C153.437 15.4933 151.664 14.5694 149.948 15.1441ZM151.107 19.912C150.212 20.2118 149.287 19.7296 149.041 18.837C148.794 17.9433 149.319 16.9767 150.214 16.6769C151.108 16.3775 152.034 16.8581 152.281 17.7519C152.527 18.6456 152.002 19.6122 151.107 19.912Z" fill="white"/>
<path d="M164.315 12.1823L163.929 10.7855L162.284 11.3344L161.765 9.46098L160.264 10.5297L161.455 14.8303C161.932 16.5549 163.569 17.5347 165.391 16.927L165.61 16.8536L165.199 15.369C164.288 15.6729 163.352 15.1861 163.101 14.281L162.672 12.7308L164.315 12.1823Z" fill="white"/>
<path d="M83.4449 43.2806L80.7501 44.1832L82.1902 35.2088L84.8851 34.3062L83.4449 43.2806Z" fill="white"/>
<path d="M87.6215 41.9313L84.9256 42.8342L86.3668 33.8595L89.0616 32.9569L87.6215 41.9313Z" fill="white"/>
<path d="M98.6856 35.9253L96.0601 32.7913L94.2959 33.382L98.6329 38.3027L99.931 37.868L101.047 31.1216L99.2841 31.7119L98.6856 35.9253Z" fill="white"/>
<path d="M111.781 27.5012C109.986 28.1024 108.915 29.9746 109.386 31.6825C109.858 33.3916 111.695 34.2887 113.489 33.6878C114.877 33.2229 115.832 31.9981 115.976 30.6761L114.191 31.2739C113.968 31.6996 113.577 32.051 113.083 32.2166C112.306 32.4767 111.514 32.2019 111.123 31.594L115.973 29.9696C115.956 29.8143 115.926 29.6597 115.884 29.5066C115.823 29.2861 115.738 29.0786 115.635 28.8863C114.939 27.5909 113.344 26.978 111.781 27.5012ZM110.894 30.4742C110.996 29.8114 111.487 29.207 112.187 28.9725C112.888 28.7379 113.6 28.9391 114.021 29.4269L110.894 30.4742Z" fill="white"/>
<path d="M104.939 29.685C104.29 29.9021 103.743 30.3028 103.339 30.8094L102.727 28.5937L101.269 29.6338L103.258 36.8383L104.778 36.329L104.669 35.9093C105.283 36.108 105.971 36.1191 106.65 35.8915C108.366 35.3168 109.374 33.4614 108.901 31.7484C108.429 30.0339 106.654 29.1104 104.939 29.685ZM106.099 34.4526C105.204 34.7524 104.279 34.2702 104.033 33.3776C103.786 32.4839 104.311 31.5173 105.206 31.2175C106.1 30.9181 107.026 31.3988 107.273 32.2925C107.518 33.1866 106.993 34.1532 106.099 34.4526Z" fill="white"/>
<path d="M119.306 26.7232L118.919 25.3264L117.274 25.8753L116.756 24.0019L115.255 25.0707L116.446 29.3712C116.923 31.0959 118.56 32.0756 120.381 31.4679L120.601 31.3946L120.19 29.9099C119.279 30.2138 118.342 29.727 118.092 28.8219L117.662 27.2717L119.306 26.7232Z" fill="white"/>
<path d="M38.4357 57.8216L35.7409 58.7241L37.181 49.7497L39.8758 48.8471L38.4357 57.8216Z" fill="white"/>
<path d="M42.6122 56.4722L39.9174 57.3748L41.3575 48.4004L44.0523 47.4979L42.6122 56.4722Z" fill="white"/>
<path d="M53.6775 50.4658L51.0509 47.3323L49.2878 47.9226L53.6237 52.8436L54.9229 52.4086L56.039 45.6622L54.2748 46.2528L53.6775 50.4658Z" fill="white"/>
<path d="M66.773 42.0418C64.9779 42.643 63.9068 44.5152 64.3782 46.2231C64.8499 47.9322 66.6865 48.8292 68.4806 48.2284C69.8688 47.7635 70.8239 46.5386 70.9674 45.2167L69.1823 45.8145C68.9597 46.2402 68.5691 46.5915 68.0745 46.7572C67.2978 47.0173 66.506 46.7425 66.1147 46.1346L70.9652 44.5102C70.9481 44.3549 70.9177 44.2003 70.8755 44.0471C70.8146 43.8267 70.7303 43.6192 70.6269 43.4269C69.9293 42.1319 68.3355 41.5185 66.773 42.0418ZM65.8843 45.0152C65.9863 44.3524 66.4777 43.748 67.178 43.5134C67.8783 43.2789 68.5908 43.4801 69.0116 43.9679L65.8843 45.0152Z" fill="white"/>
<path d="M59.9294 44.226C59.2812 44.4431 58.7341 44.8437 58.3296 45.3504L57.718 43.1347L56.2611 44.1744L58.2495 51.3789L59.7703 50.8696L59.6606 50.4499C60.2746 50.6486 60.9624 50.6597 61.6422 50.432C63.358 49.8574 64.3657 48.002 63.8929 46.289C63.4198 44.5749 61.6452 43.6513 59.9294 44.226ZM61.09 48.9936C60.1949 49.2934 59.2699 48.8111 59.0236 47.9186C58.7769 47.0249 59.302 46.0582 60.1971 45.7584C61.0911 45.459 62.0169 45.9397 62.2636 46.8334C62.5102 47.7272 61.984 48.6941 61.09 48.9936Z" fill="white"/>
<path d="M74.2971 41.2642L73.9103 39.8673L72.2653 40.4162L71.7464 38.5429L70.2454 39.6116L71.4365 43.9122C71.9141 45.6368 73.551 46.6166 75.3724 46.0088L75.5921 45.9355L75.181 44.4509C74.2702 44.7548 73.3333 44.268 73.0826 43.3629L72.6533 41.8127L74.2971 41.2642Z" fill="white"/>
<path d="M8.6676 65.0059L6.04293 61.8782L4.27856 62.4703L8.61244 67.3815L9.91157 66.9455L11.0349 60.2031L9.26937 60.7955L8.6676 65.0059Z" fill="white"/>
<path d="M21.7664 56.5861C19.9698 57.1891 18.8963 59.0612 19.3662 60.7673C19.8364 62.4746 21.6731 63.3687 23.4686 62.766C24.858 62.2996 25.8147 61.0745 25.9596 59.7533L24.1731 60.353C23.9499 60.7786 23.5588 61.1302 23.0638 61.2963C22.2864 61.5573 21.4945 61.2837 21.1037 60.6767L25.9581 59.0473C25.9412 58.8922 25.911 58.7377 25.8688 58.5847C25.8082 58.3645 25.724 58.1573 25.6208 57.9653C24.9242 56.6721 23.3302 56.0612 21.7664 56.5861ZM20.8743 59.5584C20.977 58.8959 21.4692 58.2913 22.1701 58.0561C22.871 57.8208 23.5836 58.021 24.0041 58.5079L20.8743 59.5584Z" fill="white"/>
<path d="M14.9221 58.7688C14.2732 58.9866 13.7254 59.3877 13.3201 59.8946L12.7104 57.6809L11.2503 58.7222L13.2328 65.9203L14.7551 65.4093L14.6458 64.99C15.2599 65.1878 15.9482 65.1981 16.6287 64.9697C18.3462 64.3931 19.3564 62.5375 18.8851 60.826C18.4145 59.113 16.6397 58.1922 14.9221 58.7688ZM16.0787 63.5323C15.1827 63.8331 14.2576 63.3523 14.012 62.4605C13.7661 61.5676 14.2925 60.6008 15.1885 60.3001C16.0834 59.9997 17.0093 60.4789 17.2552 61.3719C17.5012 62.2648 16.9747 63.2315 16.0787 63.5323Z" fill="white"/>
<path d="M29.2909 55.8035L28.9049 54.4074L27.2573 54.9582L26.7398 53.0858L25.2358 54.1562L26.424 58.4546C26.9005 60.1784 28.5384 61.156 30.3627 60.546L30.5827 60.4725L30.1726 58.9886C29.2604 59.2935 28.3228 58.808 28.0727 57.9034L27.6444 56.354L29.2909 55.8035Z" fill="white"/>
</g>
<mask id="mask1_204_371" style="mask-type:alpha" maskUnits="userSpaceOnUse" x="361" y="276" width="539" height="246">
<rect x="361.961" y="276.205" width="537.831" height="245.251" fill="#C4C4C4"/>
</mask>
<g mask="url(#mask1_204_371)">
<path d="M904.34 429.812L412.473 567.285L420.323 599.673L912.19 462.2L904.34 429.812Z" fill="#D31B83"/>
<path d="M904.34 429.812L412.473 567.285L420.323 599.673L912.19 462.2L904.34 429.812Z" fill="#D31B83"/>
<path d="M676.914 495.19L413.054 568.326L413.55 570.356L677.409 497.219L676.914 495.19Z" fill="white"/>
<path d="M638.212 525.778L635.481 526.573L637.283 517.667L640.014 516.872L638.212 525.778Z" fill="white"/>
<path d="M642.436 524.609L639.705 525.404L641.507 516.498L644.238 515.703L642.436 524.609Z" fill="white"/>
<path d="M629.157 523.374L628.824 521.961L627.16 522.44L626.713 520.544L625.174 521.55L626.199 525.9C626.611 527.645 628.208 528.694 630.05 528.164L630.272 528.1L629.918 526.598C628.997 526.863 628.08 526.337 627.864 525.421L627.494 523.853L629.157 523.374Z" fill="white"/>
<path d="M904.522 432.189L640.662 505.326L641.158 507.355L905.018 434.218L904.522 432.189Z" fill="white"/>
<path d="M911.093 459.05L647.233 532.187L647.729 534.216L911.589 461.079L911.093 459.05Z" fill="white"/>
<path d="M865.829 462.785L863.105 463.572L864.883 454.659L867.607 453.872L865.829 462.785Z" fill="white"/>
<path d="M870.054 461.615L867.329 462.403L869.107 453.49L871.831 452.702L870.054 461.615Z" fill="white"/>
<path d="M881.338 456.085L878.835 452.84L877.052 453.355L881.194 458.461L882.507 458.081L883.877 451.382L882.094 451.898L881.338 456.085Z" fill="white"/>
<path d="M894.743 448.226C892.928 448.751 891.788 450.578 892.194 452.306C892.6 454.035 894.399 455.01 896.213 454.486C897.616 454.08 898.616 452.896 898.81 451.58L897.005 452.102C896.767 452.518 896.363 452.853 895.863 452.997C895.078 453.224 894.298 452.916 893.931 452.291L898.834 450.873C898.823 450.717 898.799 450.562 898.762 450.407C898.71 450.184 898.633 449.972 898.538 449.776C897.89 448.451 896.323 447.77 894.743 448.226ZM893.743 451.162C893.87 450.503 894.383 449.92 895.091 449.715C895.799 449.511 896.504 449.742 896.905 450.248L893.743 451.162Z" fill="white"/>
<path d="M887.822 450.116C887.166 450.306 886.605 450.683 886.182 451.172L885.656 448.93L884.161 449.908L885.872 457.198L887.41 456.753L887.316 456.329C887.922 456.554 888.608 456.594 889.295 456.395C891.03 455.894 892.106 454.081 891.699 452.348C891.293 450.614 889.556 449.614 887.822 450.116ZM888.8 454.933C887.895 455.195 886.99 454.673 886.777 453.77C886.565 452.866 887.126 451.922 888.031 451.66C888.935 451.399 889.841 451.919 890.053 452.823C890.265 453.727 889.703 454.672 888.8 454.933Z" fill="white"/>
<path d="M902.289 447.773L901.956 446.359L900.292 446.838L899.845 444.943L898.306 445.948L899.331 450.299C899.743 452.044 901.34 453.093 903.182 452.563L903.404 452.499L903.05 450.997C902.129 451.262 901.212 450.735 900.996 449.82L900.626 448.251L902.289 447.773Z" fill="white"/>
<path d="M820.306 475.385L817.582 476.173L819.36 467.26L822.085 466.472L820.306 475.385Z" fill="white"/>
<path d="M824.53 474.216L821.806 475.004L823.584 466.091L826.308 465.303L824.53 474.216Z" fill="white"/>
<path d="M835.815 468.686L833.311 465.441L831.529 465.956L835.672 471.061L836.984 470.682L838.354 463.983L836.571 464.499L835.815 468.686Z" fill="white"/>
<path d="M849.22 460.827C847.405 461.352 846.265 463.178 846.67 464.906C847.077 466.635 848.876 467.611 850.69 467.086C852.093 466.68 853.093 465.496 853.286 464.181L851.482 464.702C851.243 465.118 850.84 465.453 850.34 465.598C849.555 465.825 848.775 465.516 848.407 464.892L853.311 463.474C853.3 463.318 853.275 463.162 853.239 463.007C853.186 462.784 853.11 462.573 853.014 462.376C852.367 461.052 850.799 460.37 849.22 460.827ZM848.22 463.762C848.347 463.104 848.86 462.521 849.568 462.316C850.276 462.111 850.98 462.343 851.381 462.848L848.22 463.762Z" fill="white"/>
<path d="M842.298 462.717C841.643 462.906 841.082 463.283 840.659 463.773L840.132 461.531L838.637 462.509L840.349 469.798L841.887 469.354L841.793 468.929C842.398 469.154 843.085 469.195 843.772 468.996C845.506 468.494 846.583 466.682 846.176 464.949C845.77 463.214 844.033 462.215 842.298 462.717ZM843.276 467.534C842.371 467.795 841.466 467.274 841.254 466.371C841.042 465.466 841.603 464.522 842.508 464.261C843.411 463.999 844.317 464.519 844.53 465.424C844.742 466.328 844.181 467.272 843.276 467.534Z" fill="white"/>
<path d="M856.765 460.373L856.432 458.96L854.769 459.439L854.322 457.544L852.782 458.549L853.808 462.899C854.219 464.644 855.817 465.694 857.658 465.163L857.881 465.099L857.527 463.597C856.606 463.862 855.689 463.336 855.473 462.42L855.103 460.852L856.765 460.373Z" fill="white"/>
<path d="M774.784 487.985L772.058 488.773L773.836 479.861L776.562 479.073L774.784 487.985Z" fill="white"/>
<path d="M779.008 486.816L776.283 487.604L778.061 478.691L780.786 477.903L779.008 486.816Z" fill="white"/>
<path d="M790.291 481.286L787.788 478.041L786.006 478.556L790.148 483.661L791.461 483.282L792.831 476.584L791.048 477.099L790.291 481.286Z" fill="white"/>
<path d="M803.696 473.428C801.882 473.952 800.741 475.779 801.147 477.507C801.553 479.236 803.353 480.211 805.166 479.687C806.57 479.281 807.57 478.097 807.763 476.781L805.958 477.303C805.72 477.719 805.317 478.054 804.817 478.198C804.032 478.425 803.252 478.117 802.884 477.492L807.787 476.075C807.776 475.919 807.752 475.763 807.715 475.608C807.663 475.385 807.587 475.174 807.491 474.977C806.844 473.652 805.276 472.971 803.696 473.428ZM802.698 476.363C802.825 475.704 803.338 475.121 804.046 474.916C804.754 474.711 805.458 474.943 805.859 475.449L802.698 476.363Z" fill="white"/>
<path d="M796.776 475.317C796.121 475.506 795.56 475.884 795.137 476.373L794.61 474.131L793.115 475.109L794.827 482.399L796.364 481.954L796.271 481.53C796.876 481.755 797.562 481.795 798.25 481.596C799.984 481.095 801.06 479.282 800.653 477.549C800.246 475.815 798.511 474.815 796.776 475.317ZM797.753 480.134C796.848 480.396 795.943 479.874 795.731 478.971C795.519 478.067 796.079 477.123 796.984 476.861C797.888 476.6 798.794 477.12 799.006 478.024C799.219 478.928 798.658 479.873 797.753 480.134Z" fill="white"/>
<path d="M811.243 472.973L810.91 471.56L809.246 472.039L808.8 470.144L807.26 471.149L808.286 475.5C808.697 477.245 810.294 478.294 812.136 477.763L812.358 477.7L812.004 476.197C811.083 476.463 810.166 475.936 809.95 475.02L809.581 473.452L811.243 472.973Z" fill="white"/>
<path d="M729.261 500.586L726.536 501.374L728.314 492.461L731.038 491.673L729.261 500.586Z" fill="white"/>
<path d="M733.485 499.417L730.759 500.205L732.538 491.292L735.263 490.504L733.485 499.417Z" fill="white"/>
<path d="M744.768 493.887L742.266 490.641L740.482 491.157L744.625 496.262L745.937 495.883L747.307 489.184L745.525 489.699L744.768 493.887Z" fill="white"/>
<path d="M758.173 486.028C756.358 486.553 755.218 488.379 755.624 490.107C756.03 491.836 757.829 492.812 759.643 492.287C761.046 491.882 762.046 490.698 762.24 489.382L760.435 489.903C760.197 490.32 759.793 490.654 759.293 490.799C758.508 491.026 757.728 490.717 757.361 490.093L762.264 488.675C762.253 488.519 762.229 488.363 762.192 488.208C762.14 487.985 762.064 487.774 761.968 487.578C761.321 486.252 759.753 485.572 758.173 486.028ZM757.174 488.963C757.301 488.305 757.815 487.721 758.523 487.517C759.231 487.312 759.934 487.544 760.336 488.049L757.174 488.963Z" fill="white"/>
<path d="M751.253 487.918C750.598 488.107 750.036 488.484 749.613 488.974L749.087 486.732L747.592 487.71L749.304 494.999L750.841 494.555L750.748 494.13C751.353 494.355 752.039 494.396 752.726 494.197C754.461 493.695 755.537 491.883 755.13 490.15C754.724 488.415 752.988 487.416 751.253 487.918ZM752.231 492.735C751.326 492.996 750.421 492.475 750.209 491.572C749.996 490.667 750.557 489.723 751.462 489.461C752.366 489.2 753.272 489.72 753.484 490.624C753.695 491.529 753.135 492.473 752.231 492.735Z" fill="white"/>
<path d="M765.72 485.574L765.387 484.161L763.723 484.64L763.276 482.745L761.737 483.749L762.763 488.1C763.174 489.845 764.771 490.895 766.613 490.364L766.835 490.3L766.481 488.798C765.56 489.063 764.643 488.537 764.427 487.621L764.057 486.053L765.72 485.574Z" fill="white"/>
<path d="M683.737 513.187L681.013 513.974L682.791 505.061L685.515 504.274L683.737 513.187Z" fill="white"/>
<path d="M687.961 512.017L685.237 512.805L687.015 503.892L689.739 503.104L687.961 512.017Z" fill="white"/>
<path d="M699.246 506.487L696.742 503.242L694.96 503.757L699.102 508.863L700.415 508.483L701.785 501.785L700.002 502.3L699.246 506.487Z" fill="white"/>
<path d="M712.651 498.629C710.836 499.153 709.696 500.98 710.102 502.708C710.508 504.437 712.307 505.412 714.121 504.888C715.524 504.482 716.524 503.298 716.717 501.982L714.913 502.504C714.674 502.92 714.271 503.255 713.771 503.399C712.986 503.626 712.206 503.318 711.839 502.693L716.742 501.275C716.731 501.119 716.706 500.964 716.67 500.809C716.618 500.586 716.541 500.374 716.445 500.178C715.798 498.853 714.23 498.172 712.651 498.629ZM711.651 501.564C711.778 500.905 712.291 500.322 712.999 500.117C713.707 499.913 714.411 500.144 714.812 500.65L711.651 501.564Z" fill="white"/>
<path d="M705.73 500.518C705.074 500.708 704.513 501.085 704.09 501.574L703.564 499.333L702.07 500.31L703.781 507.599L705.319 507.155L705.225 506.731C705.831 506.955 706.517 506.996 707.204 506.797C708.939 506.296 710.015 504.483 709.608 502.75C709.201 501.016 707.464 500.017 705.73 500.518ZM706.707 505.335C705.803 505.597 704.897 505.075 704.685 504.172C704.473 503.268 705.034 502.324 705.939 502.062C706.843 501.801 707.749 502.321 707.961 503.225C708.173 504.129 707.611 505.074 706.707 505.335Z" fill="white"/>
<path d="M720.197 498.175L719.864 496.761L718.2 497.24L717.753 495.345L716.214 496.35L717.239 500.701C717.651 502.446 719.248 503.495 721.09 502.965L721.312 502.901L720.958 501.399C720.037 501.664 719.12 501.137 718.904 500.222L718.534 498.653L720.197 498.175Z" fill="white"/>
<path d="M653.722 519.087L651.221 515.848L649.437 516.365L653.576 521.46L654.89 521.079L656.267 514.385L654.482 514.903L653.722 519.087Z" fill="white"/>
<path d="M667.13 511.233C665.314 511.759 664.171 513.586 664.576 515.312C664.98 517.039 666.779 518.011 668.595 517.485C669.999 517.077 671.001 515.893 671.196 514.578L669.39 515.102C669.151 515.518 668.747 515.853 668.246 515.998C667.461 516.226 666.68 515.919 666.313 515.295L671.221 513.872C671.21 513.716 671.186 513.56 671.15 513.406C671.097 513.183 671.021 512.972 670.925 512.776C670.279 511.453 668.711 510.774 667.13 511.233ZM666.127 514.167C666.255 513.509 666.769 512.925 667.477 512.72C668.186 512.514 668.89 512.745 669.291 513.25L666.127 514.167Z" fill="white"/>
<path d="M660.208 513.121C659.552 513.311 658.99 513.689 658.566 514.179L658.042 511.939L656.545 512.918L658.25 520.201L659.789 519.754L659.696 519.33C660.302 519.554 660.988 519.594 661.676 519.394C663.413 518.891 664.492 517.078 664.086 515.346C663.682 513.613 661.945 512.617 660.208 513.121ZM661.182 517.933C660.276 518.196 659.371 517.676 659.16 516.774C658.948 515.871 659.51 514.926 660.416 514.663C661.321 514.401 662.227 514.92 662.439 515.823C662.65 516.726 662.088 517.671 661.182 517.933Z" fill="white"/>
<path d="M674.677 510.774L674.344 509.361L672.678 509.842L672.233 507.948L670.69 508.955L671.712 513.303C672.122 515.047 673.721 516.094 675.566 515.561L675.789 515.497L675.436 513.996C674.513 514.262 673.595 513.737 673.38 512.822L673.011 511.254L674.677 510.774Z" fill="white"/>
</g>
<mask id="mask2_204_371" style="mask-type:alpha" maskUnits="userSpaceOnUse" x="0" y="266" width="738" height="256">
<rect x="0.901367" y="266.874" width="736.529" height="254.582" fill="#C4C4C4"/>
</mask>
<g mask="url(#mask2_204_371)">
<path d="M286.545 595.687L-146.523 325.403L-163.215 354.255L269.853 624.539L286.545 595.687Z" fill="#D31B83"/>
<path d="M286.545 595.687L-146.523 325.403L-163.215 354.255L269.853 624.539L286.545 595.687Z" fill="#D31B83"/>
<path d="M85.1208 472.038L-147.385 327.631L-148.434 329.437L84.0716 473.844L85.1208 472.038Z" fill="white"/>
<path d="M71.2169 495.952L-161.289 351.546L-162.338 353.352L70.1677 497.758L71.2169 495.952Z" fill="white"/>
<path d="M37.495 464.904L35.1004 463.373L42.2645 458.396L44.6591 459.927L37.495 464.904Z" fill="white"/>
<path d="M41.2178 467.215L38.8232 465.684L45.9873 460.706L48.3819 462.237L41.2178 467.215Z" fill="white"/>
<path d="M-2.63333 440.014L-5.02379 438.492L2.15424 433.492L4.5447 435.014L-2.63333 440.014Z" fill="white"/>
<path d="M1.08948 442.325L-1.30101 440.802L5.87705 435.802L8.26753 437.324L1.08948 442.325Z" fill="white"/>
<path d="M12.6301 446.768L13.0888 442.537L11.5248 441.541L10.9434 448.353L12.095 449.086L17.5137 445.354L15.9487 444.358L12.6301 446.768Z" fill="white"/>
<path d="M27.23 451.12C25.6376 450.106 23.6359 450.537 22.7576 452.081C21.8787 453.625 22.4572 455.698 24.0487 456.711C25.2801 457.495 26.7561 457.415 27.7686 456.624L26.1851 455.616C25.7436 455.73 25.244 455.661 24.8052 455.381C24.1162 454.943 23.789 454.126 23.9554 453.399L28.2581 456.139C28.3548 456.019 28.4423 455.889 28.5211 455.75C28.6344 455.551 28.7235 455.342 28.7894 455.128C29.2328 453.688 28.616 452.002 27.23 451.12ZM24.5825 452.45C25.1097 452.077 25.8512 452.053 26.4725 452.449C27.0937 452.844 27.4211 453.549 27.3565 454.216L24.5825 452.45Z" fill="white"/>
<path d="M21.1603 447.327C20.5853 446.961 19.949 446.801 19.3322 446.826L20.4716 444.824L18.7949 444.378L15.09 450.889L16.4391 451.748L16.6589 451.374C16.9226 451.998 17.3649 452.552 17.968 452.936C19.49 453.905 21.4385 453.435 22.3194 451.887C23.2019 450.338 22.6824 448.296 21.1603 447.327ZM18.6071 451.513C17.8131 451.007 17.5429 449.942 18.0019 449.136C18.4615 448.328 19.4767 448.083 20.2707 448.589C21.0638 449.094 21.3356 450.158 20.876 450.966C20.4164 451.774 19.4002 452.018 18.6071 451.513Z" fill="white"/>
<path d="M32.7789 456.461L33.4983 455.199L32.038 454.272L33.0028 452.579L31.2747 452.121L29.0597 456.007C28.1715 457.565 28.5617 459.532 30.1787 460.559L30.3737 460.683L31.1384 459.342C30.3299 458.828 30.055 457.753 30.5211 456.935L31.3195 455.534L32.7789 456.461Z" fill="white"/>
<path d="M285.71 596.519L53.2045 452.113L52.1553 453.919L284.661 598.325L285.71 596.519Z" fill="white"/>
<path d="M271.807 620.434L39.3007 476.027L38.2515 477.833L270.757 622.239L271.807 620.434Z" fill="white"/>
<path d="M117.719 514.702L115.328 513.18L122.506 508.179L124.897 509.701L117.719 514.702Z" fill="white"/>
<path d="M121.441 517.013L119.05 515.49L126.229 510.49L128.62 512.012L121.441 517.013Z" fill="white"/>
<path d="M132.981 521.455L133.441 517.225L131.876 516.228L131.294 523.04L132.446 523.773L137.865 520.041L136.301 519.045L132.981 521.455Z" fill="white"/>
<path d="M141.512 522.015C140.937 521.648 140.301 521.488 139.684 521.514L140.824 519.511L139.147 519.066L135.442 525.577L136.791 526.436L137.011 526.062C137.274 526.686 137.717 527.239 138.32 527.623C139.842 528.593 141.79 528.122 142.671 526.574C143.554 525.025 143.034 522.984 141.512 522.015ZM138.959 526.201C138.165 525.695 137.895 524.63 138.354 523.824C138.813 523.016 139.829 522.771 140.623 523.277C141.416 523.781 141.687 524.846 141.228 525.654C140.767 526.461 139.752 526.706 138.959 526.201Z" fill="white"/>
<path d="M77.5991 489.805L75.2087 488.283L82.387 483.282L84.7774 484.804L77.5991 489.805Z" fill="white"/>
<path d="M81.3219 492.115L78.9315 490.593L86.1097 485.592L88.5001 487.114L81.3219 492.115Z" fill="white"/>
<path d="M92.8627 496.558L93.3215 492.328L91.7576 491.332L91.175 498.143L92.3275 498.877L97.7464 495.145L96.1815 494.148L92.8627 496.558Z" fill="white"/>
<path d="M107.463 500.91C105.87 499.896 103.869 500.328 102.99 501.871C102.111 503.416 102.69 505.488 104.281 506.502C105.513 507.286 106.989 507.206 108.001 506.415L106.418 505.406C105.976 505.521 105.476 505.451 105.038 505.172C104.349 504.733 104.022 503.916 104.188 503.19L108.491 505.929C108.587 505.809 108.675 505.679 108.754 505.541C108.867 505.342 108.956 505.133 109.022 504.919C109.465 503.478 108.849 501.793 107.463 500.91ZM104.815 502.24C105.342 501.867 106.084 501.844 106.705 502.239C107.326 502.635 107.653 503.338 107.589 504.006L104.815 502.24Z" fill="white"/>
<path d="M101.393 497.117C100.818 496.751 100.182 496.591 99.5649 496.617L100.704 494.614L99.0286 494.169L95.3235 500.681L96.6725 501.54L96.8924 501.165C97.1561 501.789 97.5984 502.343 98.2014 502.727C99.7234 503.696 101.672 503.226 102.553 501.678C103.434 500.128 102.915 498.087 101.393 497.117ZM98.8396 501.303C98.0456 500.798 97.7754 499.733 98.2345 498.926C98.6941 498.119 99.7093 497.874 100.503 498.379C101.296 498.884 101.568 499.949 101.108 500.756C100.649 501.564 99.6326 501.808 98.8396 501.303Z" fill="white"/>
<path d="M113.012 506.252L113.731 504.99L112.271 504.062L113.236 502.37L111.508 501.912L109.292 505.797C108.404 507.355 108.794 509.322 110.411 510.35L110.606 510.473L111.371 509.132C110.562 508.618 110.288 507.543 110.754 506.726L111.552 505.325L113.012 506.252Z" fill="white"/>
<path d="M52.7444 471.66L53.1979 467.431L51.6332 466.433L51.0601 473.243L52.2123 473.978L57.625 470.254L56.0593 469.256L52.7444 471.66Z" fill="white"/>
<path d="M67.3397 476.016C65.7464 474.999 63.7457 475.428 62.8694 476.97C61.9925 478.513 62.5734 480.586 64.1657 481.602C65.3978 482.388 66.8734 482.31 67.8847 481.521L66.3004 480.51C65.8592 480.624 65.3595 480.554 64.9205 480.274C64.2311 479.834 63.903 479.017 64.0685 478.29L68.3735 481.036C68.4701 480.916 68.5574 480.786 68.636 480.648C68.7491 480.449 68.8379 480.24 68.9036 480.027C69.3451 478.587 68.7265 476.9 67.3397 476.016ZM64.6943 477.342C65.221 476.97 65.9624 476.947 66.5839 477.344C67.2055 477.74 67.5327 478.444 67.4699 479.112L64.6943 477.342Z" fill="white"/>
<path d="M61.2713 472.222C60.6958 471.855 60.0593 471.694 59.4426 471.719L60.5796 469.717L58.9023 469.269L55.2053 475.776L56.5553 476.637L56.7747 476.263C57.0392 476.887 57.4822 477.442 58.0856 477.827C59.6088 478.798 61.5567 478.331 62.4357 476.784C63.3163 475.236 62.7944 473.194 61.2713 472.222ZM58.7231 476.405C57.9285 475.898 57.657 474.833 58.115 474.026C58.5737 473.219 59.5886 472.976 60.3832 473.483C61.1768 473.989 61.4499 475.054 60.9912 475.861C60.5326 476.668 59.5177 476.912 58.7231 476.405Z" fill="white"/>
<path d="M72.8939 481.358L73.6121 480.096L72.1497 479.166L73.113 477.474L71.3833 477.013L69.1719 480.897C68.285 482.455 68.678 484.423 70.2972 485.454L70.4926 485.578L71.256 484.237C70.4464 483.722 70.1699 482.646 70.6353 481.828L71.4325 480.428L72.8939 481.358Z" fill="white"/>
</g>
</svg>
