<svg width="900" height="106" viewBox="0 0 900 106" fill="none" xmlns="http://www.w3.org/2000/svg">
<rect x="0.357666" y="0.258057" width="899.285" height="105" fill="#352063"/>
<path d="M65.9856 24.1535C65.7738 21.8082 64.1266 20.3518 61.6839 20.3518H61.6792C61.4768 20.3518 61.2085 20.3565 60.9026 20.3991C58.8741 20.6639 57.3444 22.0588 56.4737 24.4372C55.8572 26.1252 55.7819 27.7565 55.7725 27.9409L55.7348 29.0048C55.443 29.4919 55.2171 30.0167 55.0618 30.5652C54.6335 32.0831 54.1111 34.5418 54.0263 37.6673L54.0028 38.4854C53.5839 39.0906 53.2168 39.7715 52.9062 40.5186C52.5203 41.4501 52.2143 42.3958 51.9131 43.6204L51.7013 39.223C51.6684 37.5066 50.4117 26.7494 49.3951 23.0848C48.9762 21.5812 47.5972 20.6497 45.7899 20.6497C44.9239 20.6497 43.9826 20.8483 43.2013 21.1982C39.1631 22.9997 39.4973 28.2672 40.335 31.0995L40.6221 32.0736C40.5892 32.3384 40.5704 32.6079 40.5798 32.8774C40.6174 34.6459 41.0128 36.4758 41.8741 39.9086L42.1329 40.9394C41.94 41.4926 41.827 42.0695 41.8035 42.6558C41.7423 44.0886 41.7799 45.5638 41.9117 47.0722C41.7564 47.0344 41.6105 47.0013 41.4646 46.9776C41.3987 46.9682 41.3328 46.9587 41.2622 46.9493C41.0269 46.9162 40.8339 46.8972 40.6457 46.8925H40.6221H40.608H40.5939H40.5563H40.5233H40.5092C40.3821 46.8925 40.2739 46.902 40.1891 46.9067H40.1797H40.1656C40.095 46.9067 39.9538 46.9114 39.7844 46.9351C39.6432 46.954 39.5349 46.9824 39.4549 47.0013H39.4502C39.3184 47.0296 39.1066 47.0722 38.8713 47.1573C38.523 47.285 38.2265 47.4363 37.9582 47.616L37.9206 47.6396L37.8924 47.6585L37.8641 47.6774L37.8265 47.7058C36.9087 48.4198 36.0003 49.2331 35.5814 50.349C35.2849 51.1387 35.2238 52.0323 35.3979 53.0962C35.3179 53.0915 35.2426 53.0915 35.1626 53.0915C34.4048 53.0915 33.6471 53.2948 32.9128 53.6967C32.1786 54.0987 31.7456 54.6708 31.3644 55.1767L31.2326 55.3517C29.7971 57.2336 30.5549 59.8863 31.2514 61.7209L31.2609 61.754C31.2703 61.7824 31.2797 61.8013 31.2844 61.8202C31.3267 61.9573 31.3785 62.0944 31.4303 62.2316L31.3503 63.7399C31.2797 65.0308 31.788 66.5486 32.4563 68.3974C32.6305 68.875 32.8234 69.4141 32.8799 69.641C33.6659 72.9131 35.0025 75.4901 36.8522 77.3106L36.904 85.1645H60.5449L59.3871 76.7526L59.3447 76.45C60.9073 74.2134 62.0651 71.0501 62.6911 67.2674C63.6606 61.4372 63.2182 54.8316 61.5097 49.5357C61.8015 47.8713 62.2722 45.5355 62.7758 43.0625L62.7946 42.9726C63.0582 41.6723 63.3312 40.3295 63.5759 39.0811C63.6841 38.5232 63.7924 37.9652 63.9006 37.4073C64.0042 36.8635 64.1077 36.3197 64.2066 35.776C64.3054 35.2322 64.4042 34.6932 64.4984 34.1588C64.6678 33.2226 64.8419 32.2107 65.0349 31.0664C65.2044 30.0782 65.3597 29.142 65.5009 28.2814L65.5291 28.1112C65.6609 27.331 65.7785 26.617 65.8821 25.9976C65.9197 25.7753 65.948 25.572 65.9668 25.3734C65.995 25.1086 66.0045 24.8533 65.9998 24.6074C66.0045 24.4466 65.9998 24.2953 65.9856 24.1535ZM65.0114 25.2647C64.9926 25.4396 64.969 25.6193 64.9361 25.8226C64.8231 26.4893 64.6913 27.2601 64.5501 28.1112C64.4089 28.967 64.2489 29.9032 64.0842 30.8915C63.9148 31.8797 63.7359 32.9153 63.5477 33.9792C63.4535 34.5087 63.3547 35.0478 63.2558 35.5868C63.157 36.1259 63.0535 36.6696 62.9499 37.2134C62.8417 37.7714 62.7334 38.3293 62.6252 38.8825C62.3757 40.1545 62.098 41.5163 61.8251 42.8592C61.2979 45.4551 60.799 47.9139 60.5119 49.5972C62.2392 54.7985 62.6958 61.3095 61.7356 67.0971C61.0908 70.9603 59.9095 74.0763 58.3328 76.1852L58.4269 76.8755L59.4341 84.1857H58.1351C58.1351 84.1857 57.0903 77.0647 57.0903 77.0694L57.0856 77.0741C56.2243 77.6368 55.3253 77.9914 54.5205 78.2231C54.4076 78.2562 54.2946 78.2846 54.1817 78.313C54.2711 78.2799 54.3652 78.2421 54.4546 78.1995C57.5468 76.8046 59.7354 71.6648 60.5072 65.5604C60.5684 65.0639 60.6249 64.5627 60.6673 64.0567C60.6861 63.8345 60.7049 63.6123 60.719 63.39C60.7567 62.8652 60.7802 62.3403 60.799 61.8107C60.799 61.8013 60.799 61.7871 60.799 61.7776C60.9167 57.6734 60.4037 53.4036 59.1282 49.7154C59.3635 48.2874 59.7777 46.1833 60.2343 43.9231C60.2578 43.7954 60.286 43.6725 60.3096 43.5448C60.4131 43.0388 60.5166 42.5282 60.6202 42.0175C60.6955 41.6345 60.7755 41.2515 60.8508 40.8685C61.0061 40.1072 61.1567 39.3507 61.2979 38.6225C61.4062 38.0693 61.5144 37.5113 61.6227 36.9581C61.6321 36.9155 61.6368 36.873 61.6462 36.8304C61.7403 36.3339 61.8345 35.8374 61.9239 35.341C62.0227 34.8019 62.1216 34.2676 62.2157 33.738C62.2628 33.4732 62.3098 33.2084 62.3569 32.9484C62.404 32.6883 62.4463 32.4282 62.4934 32.1729C62.5405 31.8939 62.5875 31.6149 62.6393 31.3407C62.6769 31.1137 62.7146 30.8868 62.757 30.6645C62.8323 30.2153 62.9076 29.7756 62.9782 29.35C63.0676 28.811 63.157 28.2956 63.237 27.8038C63.3735 26.9858 63.4959 26.2387 63.6088 25.5909C63.6135 25.5578 63.6182 25.5153 63.6277 25.4822C63.6465 25.3734 63.6606 25.2552 63.6747 25.1323C63.6841 25.0519 63.6888 24.9668 63.6936 24.8816C63.6983 24.7965 63.6983 24.7114 63.6983 24.6263C63.6983 24.5979 63.6936 24.5696 63.6936 24.5365C63.6888 24.4797 63.6889 24.423 63.6841 24.3662C63.6183 23.6192 63.2747 22.9052 62.2345 22.7255C62.2063 22.7208 62.1875 22.7208 62.1639 22.716C62.018 22.6924 61.858 22.6829 61.6839 22.6829H61.6792C61.5333 22.6829 61.3732 22.6877 61.2038 22.7113C59.9942 22.8673 59.2553 23.8225 58.8035 24.8769C58.7564 24.9904 58.7093 25.0992 58.667 25.2126C58.6105 25.3687 58.554 25.5294 58.507 25.6855C58.4599 25.8415 58.4175 25.9976 58.3799 26.1489C58.3234 26.3758 58.281 26.5933 58.2434 26.8014C58.2293 26.8818 58.2152 26.9527 58.2057 27.0284C58.1869 27.1371 58.1728 27.2411 58.1634 27.3357C58.1493 27.4586 58.1351 27.5721 58.1257 27.6667C58.1163 27.7424 58.1116 27.8133 58.1069 27.8653C58.1069 27.87 58.1069 27.8747 58.1069 27.8795C58.1022 27.9315 58.1022 27.974 58.0975 27.9977C58.0975 28.0119 58.0975 28.0261 58.0975 28.0308C58.1634 28.0071 58.2293 27.9882 58.2999 27.9693C58.3893 27.9457 58.4787 27.922 58.5681 27.9031C58.7282 27.87 58.8976 27.8417 59.0623 27.818C59.1235 27.8086 59.18 27.7991 59.2365 27.7944C59.2553 27.7896 59.2741 27.7896 59.2977 27.7896C59.5612 27.7613 59.8201 27.7424 60.0648 27.7424C60.0884 27.7424 60.1166 27.7424 60.1401 27.7424C60.1637 27.7424 60.1919 27.7424 60.2154 27.7424C60.3049 27.7471 60.3943 27.7471 60.479 27.7518C60.5684 27.7565 60.6578 27.766 60.7379 27.7755V28.2436C60.7331 28.2436 60.7284 28.2436 60.719 28.2483H60.7143C59.0906 28.4658 57.7398 29.6148 57.2974 31.1988C57.1985 31.5487 57.095 31.9507 56.9962 32.4046C56.9726 32.5181 56.9444 32.6363 56.9209 32.7545C56.7232 33.7096 56.5396 34.8587 56.4314 36.1779C56.3937 36.6744 56.3655 37.1898 56.3514 37.7288C56.6008 37.5728 56.9256 37.4546 57.2644 37.36C57.2738 37.3553 57.288 37.3553 57.2974 37.3505C57.3021 37.3505 57.3115 37.3458 57.3162 37.3458C57.4433 37.3127 57.5704 37.2749 57.7021 37.2465C57.8857 37.2087 58.0645 37.1803 58.2481 37.1567C58.474 37.1283 58.6905 37.1094 58.907 37.0952C58.9588 37.0905 59.0106 37.0857 59.0623 37.081C59.1518 37.0763 59.2506 37.0668 59.3353 37.0668V37.6295C59.3212 37.6295 59.2929 37.6295 59.2459 37.6342C59.18 37.639 59.0764 37.6532 58.9447 37.6815C58.8129 37.7099 58.6529 37.7477 58.474 37.8092C58.0834 37.9369 57.7163 38.1118 57.3774 38.3246C57.0573 38.5279 56.7561 38.7643 56.4879 39.0339L56.4832 39.0386C56.0501 39.4736 55.6925 39.9843 55.4289 40.547C55.3818 40.6415 55.3395 40.7361 55.2971 40.8307C55.2783 40.878 55.2547 40.9252 55.2359 40.9678C55.1747 41.1049 55.1183 41.242 55.0571 41.3839C54.9629 41.6156 54.8735 41.8426 54.7888 42.0837C54.737 42.2303 54.6853 42.3769 54.6382 42.5234C54.6099 42.6086 54.5817 42.6984 54.5535 42.7882C54.5346 42.8544 54.5111 42.9206 54.4923 42.9916C54.4499 43.1287 54.4123 43.2705 54.3699 43.4124C54.3511 43.4833 54.3323 43.559 54.3087 43.6299C54.2711 43.7765 54.2287 43.9325 54.1911 44.0886C54.1581 44.2304 54.1205 44.377 54.0875 44.5283C54.0781 44.5614 54.0734 44.5992 54.064 44.6323C54.0122 44.8498 53.9652 45.0721 53.9134 45.3085C53.8851 45.4409 53.8569 45.5733 53.8287 45.7104C53.7957 45.8854 53.7581 46.065 53.7204 46.2495C53.7016 46.3535 53.6781 46.4575 53.6592 46.5663C53.5557 47.1053 53.4521 47.6869 53.3392 48.3347C52.9344 48.642 52.5391 48.9872 52.1578 49.3466C52.1531 49.3513 52.1484 49.356 52.139 49.3655C51.9508 49.5452 51.7672 49.7249 51.5884 49.9045C50.7882 50.7131 50.0964 51.5264 49.654 52.0702C49.3245 52.4768 49.1268 52.7369 49.1221 52.7369L49.0045 52.699L48.5856 52.5666C48.7691 52.2498 48.9527 51.933 49.1268 51.6399C49.574 50.8691 49.927 50.2544 49.927 50.2544L49.3857 39.2939C49.3857 39.2183 49.381 39.1095 49.3716 38.9629C49.3669 38.892 49.3622 38.8116 49.3528 38.7218C49.3433 38.5894 49.3292 38.4381 49.3151 38.2679C49.1739 36.7027 48.8397 33.7286 48.4256 30.7875C48.402 30.6078 48.3738 30.4281 48.3503 30.2484C48.3314 30.116 48.3126 29.9836 48.2938 29.8512C48.2655 29.6716 48.242 29.4919 48.2138 29.3122C48.195 29.1798 48.1761 29.0474 48.1526 28.9197C48.1244 28.7495 48.1008 28.5793 48.0726 28.4091C48.0679 28.376 48.0632 28.3476 48.0585 28.3145C48.0302 28.1301 48.002 27.9504 47.969 27.7707C47.9079 27.383 47.842 27.0047 47.7761 26.6406C47.7478 26.4704 47.7149 26.3096 47.6866 26.1489C47.6537 25.9597 47.616 25.7753 47.5831 25.6004C47.569 25.52 47.5502 25.4349 47.536 25.3545C47.5172 25.2599 47.4984 25.1701 47.4796 25.0802C47.4513 24.9384 47.4231 24.8013 47.3901 24.6736C47.3572 24.5317 47.3289 24.3899 47.296 24.2622C47.2631 24.1298 47.2348 24.0069 47.2019 23.8887C47.1878 23.8272 47.1689 23.7705 47.1548 23.7137C47.136 23.6475 47.1124 23.5813 47.0795 23.5246C46.9524 23.2976 46.7312 23.151 46.4582 23.0659C46.2559 23.0045 46.0205 22.9761 45.7805 22.9761C45.4181 22.9761 45.0322 23.0376 44.6886 23.1274C44.4815 23.1841 44.2932 23.2503 44.1332 23.3213C42.7071 23.9596 42.2224 25.3923 42.1329 26.8061C42.1188 27.0094 42.1141 27.208 42.1141 27.4114C42.1188 27.8086 42.1424 28.1963 42.1847 28.5509C42.2035 28.7164 42.2271 28.8724 42.2459 29.0238C42.2506 29.0474 42.2506 29.071 42.2553 29.0947C42.3024 29.3831 42.3541 29.6385 42.3965 29.8512C42.4247 29.9789 42.4483 30.0877 42.4718 30.1775C42.4906 30.2579 42.5095 30.3194 42.5189 30.3619C42.5283 30.4045 42.5377 30.4281 42.5377 30.4281C42.5424 30.4234 42.5471 30.4234 42.5518 30.4186C42.7071 30.3099 42.8813 30.2011 43.0695 30.1018C43.719 29.7519 44.5568 29.473 45.5358 29.473C45.5546 29.473 45.5734 29.473 45.5969 29.473C45.6064 29.473 45.6158 29.473 45.6252 29.473L45.6016 29.7519L45.5781 30.0309C45.1498 30.0309 44.7451 30.1349 44.3874 30.3099C44.3168 30.343 44.2509 30.3808 44.185 30.4234C44.0626 30.499 43.945 30.5794 43.8367 30.6693C43.5025 30.953 43.239 31.3171 43.0742 31.7332C42.9425 32.0641 42.8719 32.433 42.8813 32.816C42.9001 33.5678 42.9942 34.3527 43.1872 35.374C43.286 35.8847 43.4084 36.4521 43.559 37.0999C43.6061 37.2938 43.6531 37.4971 43.7049 37.7099C43.8226 38.2017 43.9544 38.736 44.105 39.327C44.8062 39.0433 45.6817 38.8589 46.3029 38.7549C46.6936 38.6887 46.9854 38.6556 47.0748 38.6461L47.2019 39.3176C47.1783 39.3223 47.1548 39.3223 47.136 39.327C47.1313 39.327 47.1266 39.327 47.1219 39.327C47.0418 39.3412 46.9665 39.3554 46.8912 39.3743C46.8677 39.379 46.8442 39.3838 46.8253 39.3885C46.2276 39.5398 45.6958 39.8377 45.2628 40.2396C45.2534 40.2491 45.2392 40.2585 45.2298 40.268C45.1922 40.3058 45.1545 40.3436 45.1169 40.3862C45.0839 40.424 45.0463 40.4571 45.0133 40.4949C45.0039 40.5091 44.9898 40.5233 44.9804 40.5375C44.4674 41.1333 44.1473 41.8993 44.1097 42.7315C44.1097 42.7362 44.1097 42.7457 44.1097 42.7504V42.7551C44.105 42.8734 44.105 42.9916 44.1003 43.105C44.0956 43.1996 44.0956 43.2942 44.0909 43.3888C44.0861 43.507 44.0861 43.6252 44.0861 43.7434C44.0861 43.838 44.0814 43.9372 44.0814 44.0318C44.0814 44.1453 44.0861 44.2541 44.0861 44.3675C44.0861 44.4668 44.0861 44.5661 44.0909 44.6607C44.0956 44.7695 44.0956 44.8735 44.1003 44.9822C44.105 45.0815 44.105 45.1808 44.1097 45.2754C44.1144 45.3794 44.1191 45.4787 44.1238 45.5827C44.1285 45.682 44.1332 45.7813 44.1379 45.8759C44.1426 45.9799 44.152 46.0745 44.1567 46.1785C44.1615 46.2731 44.1709 46.3677 44.1756 46.4622C44.185 46.5615 44.1944 46.6561 44.1991 46.7554C44.2085 46.8452 44.2132 46.9398 44.2226 47.0296C44.2321 47.1289 44.2415 47.2282 44.2509 47.3275C44.2603 47.4126 44.265 47.4978 44.2744 47.5781C44.2838 47.6727 44.2932 47.7626 44.3074 47.8524C44.3168 47.9375 44.3262 48.0226 44.3356 48.1077C44.345 48.1928 44.3591 48.2732 44.3685 48.3583C44.378 48.4434 44.3921 48.5286 44.4015 48.6137C44.4109 48.6941 44.425 48.7744 44.4344 48.8548C44.4438 48.9352 44.458 49.0203 44.4674 49.1007C44.4815 49.1764 44.4909 49.252 44.505 49.3277C44.5191 49.4033 44.5286 49.4837 44.5427 49.5594C44.5615 49.6634 44.5756 49.7674 44.5945 49.8667C44.5992 49.9093 44.6086 49.9518 44.6133 49.9896C44.6886 50.4105 44.7592 50.7888 44.8298 51.1197L44.6839 51.0204L44.4533 50.8597C44.2415 50.7131 44.0391 50.5949 43.8367 50.4672C43.8179 50.4578 43.799 50.4436 43.7802 50.4341C43.7096 50.3916 43.6437 50.3443 43.5731 50.3017C43.559 50.2923 43.5449 50.2828 43.5308 50.2734C43.5261 50.2734 43.5261 50.2686 43.5261 50.2686C43.4743 50.2403 43.4272 50.2119 43.3755 50.1835C43.2531 50.1126 43.126 50.0464 43.0084 49.9802C42.886 49.914 42.7683 49.8573 42.6507 49.8005C42.6177 49.7816 42.5848 49.7721 42.5471 49.7532C42.293 49.635 42.0482 49.5357 41.8129 49.4553C41.7988 49.4506 41.7894 49.4506 41.7752 49.4459C41.747 49.4364 41.7141 49.427 41.6858 49.4175C41.4646 49.3466 41.2528 49.2898 41.0504 49.2567C41.0363 49.252 41.0175 49.252 41.0034 49.252C40.9893 49.252 40.9798 49.252 40.9657 49.2473C40.8198 49.2236 40.6786 49.2095 40.5468 49.2047C40.5421 49.2047 40.5374 49.2047 40.528 49.2047H40.4998H40.4951H40.4809C40.448 49.2047 40.4151 49.2047 40.3821 49.2095C40.3492 49.2142 40.3162 49.2142 40.2833 49.2189C40.2127 49.2236 40.1421 49.2236 40.0762 49.2284C40.0244 49.2378 39.9773 49.252 39.9256 49.2615C39.8267 49.2804 39.7279 49.304 39.6338 49.3371C39.5632 49.3655 39.4926 49.3939 39.422 49.427C39.3514 49.4601 39.2855 49.4979 39.2243 49.5404C39.0925 49.6445 38.9466 49.758 38.8007 49.8809C38.6925 49.9755 38.5795 50.07 38.4713 50.1741C38.1512 50.4814 37.8594 50.8171 37.7323 51.1576C37.5723 51.5831 37.5629 52.1316 37.6759 52.7794C37.6947 52.8882 37.7182 52.9969 37.7417 53.1104C37.7935 53.3374 37.8594 53.5738 37.9347 53.8244C37.9724 53.9473 38.0147 54.075 38.0571 54.2027C38.1465 54.4627 38.2453 54.7275 38.3536 55.0065C38.5183 55.4226 38.7066 55.8576 38.9137 56.3068C38.9843 56.4581 39.0549 56.6095 39.1302 56.7655C39.2149 56.7466 39.2949 56.7277 39.3749 56.7088C39.5914 56.6615 39.8032 56.6142 40.015 56.5716C40.0668 56.5622 40.1232 56.5527 40.175 56.5433C40.2597 56.5291 40.3398 56.5149 40.4245 56.5007C40.6127 56.4676 40.801 56.4392 40.9893 56.4156C41.0081 56.4156 41.0222 56.4109 41.041 56.4109C41.314 56.3778 41.5917 56.3589 41.8694 56.3447C41.8929 56.3447 41.9211 56.3447 41.9447 56.3447C41.9964 56.3447 42.0435 56.3399 42.0953 56.3399C42.1424 56.3399 42.1847 56.3399 42.2318 56.3399C42.2553 56.3399 42.2788 56.3399 42.3024 56.3399C42.4577 56.3399 42.6177 56.3447 42.7777 56.3494C42.7919 56.3494 43.0084 56.3589 43.0225 56.3589C43.3002 56.3778 43.5873 56.4061 43.8838 56.4487C43.9073 56.4534 43.9308 56.4534 43.9544 56.4581C43.9779 56.4629 44.0014 56.4629 44.025 56.4676C44.3685 56.5196 44.7215 56.5858 45.1028 56.6709C45.1028 56.6709 44.8721 54.9734 43.9308 53.4745C43.8932 53.413 43.8555 53.3563 43.8179 53.2948L43.9261 53.2712L44.4438 53.1624C44.538 53.257 44.6321 53.3516 44.7215 53.4509C44.8721 53.6164 45.018 53.7913 45.1545 53.971C45.2251 54.0656 45.3004 54.1601 45.3663 54.2594C45.4181 54.3303 45.4652 54.406 45.5169 54.4769C45.5546 54.5337 45.5922 54.5904 45.6299 54.6519C46.4206 55.886 46.8206 57.0634 46.8206 57.0634C47.1266 57.0823 47.4419 57.1249 47.7572 57.1769C48.3597 57.2809 48.9762 57.4369 49.5975 57.6355C49.8611 57.7206 50.1293 57.8105 50.3929 57.9098L57.7492 60.988L57.7163 61.3946L57.688 61.7398L52.6144 59.9572L49.9834 59.0304C49.9646 59.021 49.9411 59.0115 49.9175 59.0068C49.5928 58.8649 49.2539 58.742 48.915 58.6427C48.7409 58.5907 48.5621 58.5434 48.3832 58.4961C48.3785 58.4961 48.3785 58.4961 48.3738 58.4961C48.242 58.463 48.0679 58.4299 47.8561 58.3968C47.8043 58.3873 47.7478 58.3826 47.6914 58.3732C47.6255 58.3637 47.5596 58.3542 47.489 58.3448C47.3854 58.3306 47.2725 58.3164 47.1548 58.3022C47.0795 58.2928 47.0042 58.2833 46.9242 58.2739C46.8536 58.2644 46.783 58.255 46.7124 58.2455C46.5712 58.2266 46.4206 58.2077 46.2747 58.1888C46.1241 58.1698 45.9735 58.1462 45.8182 58.1226C45.6628 58.0989 45.5122 58.0753 45.3569 58.0516C44.7686 57.9523 44.1662 57.8294 43.559 57.7301C43.1072 57.6544 42.6507 57.593 42.2035 57.5693C42.0529 57.5599 41.9023 57.5551 41.7564 57.5551C41.6293 57.5551 41.5023 57.5599 41.3752 57.5646C40.608 57.6119 39.9491 57.7679 39.4032 58.0091C39.2525 58.0753 39.1161 58.1509 38.9843 58.2313C38.8713 58.2975 38.7631 58.3732 38.6642 58.4488C37.9535 58.9973 37.5911 59.7586 37.6429 60.6144C37.6617 60.9691 37.7606 61.3332 37.9159 61.6783L41.1257 61.8864C41.1304 61.7918 41.1399 61.702 41.154 61.6074C41.1634 61.5128 41.1775 61.423 41.1916 61.3284C41.2575 60.9218 41.3564 60.5246 41.507 60.1416C41.5776 59.9525 41.667 59.7728 41.7658 59.5978C41.7988 59.5411 41.827 59.4796 41.86 59.4229H42.6036C42.3165 60.0045 42.18 60.5861 42.1188 61.1109C42.0953 61.319 42.0859 61.5176 42.0859 61.7067C42.0812 62.5484 42.2647 63.13 42.2647 63.13L41.9306 63.1063L41.6576 63.0874L38.7819 62.9077C38.8572 62.9881 38.9419 63.0638 39.0219 63.1347C39.4032 63.4704 39.8409 63.7447 40.3068 63.9149C40.4433 63.9669 40.5798 64.0095 40.7163 64.0426C41.5729 64.2412 42.5142 64.4445 43.1495 64.5343C43.3708 64.5674 43.592 64.5769 43.8179 64.5769C44.0626 64.5769 44.3074 64.5627 44.5474 64.5296C44.6274 64.5201 44.7074 64.5107 44.7874 64.4965C44.7404 64.435 44.698 64.3688 44.6603 64.2979C44.585 64.1655 44.5239 64.0284 44.4768 63.8865C44.4297 63.7494 44.3968 63.6075 44.3732 63.4704C44.3497 63.3333 44.3356 63.2009 44.3309 63.0732C44.3262 63.0118 44.3262 62.9456 44.3262 62.8888C44.3309 62.4065 44.425 62.0519 44.425 62.0519C44.618 62.5673 44.891 63.0165 45.1828 63.4089C45.1875 63.4137 45.1875 63.4184 45.1922 63.4231C45.644 64.0236 46.2182 64.5201 46.8489 64.9315L52.1437 68.3691L51.9225 68.6339L50.9718 68.2178L49.8705 67.7307C49.5551 67.5936 49.2257 67.5274 48.9056 67.5274C48.3785 67.5274 47.8702 67.7024 47.456 68.0192C47.4466 68.0239 47.4372 68.0334 47.4278 68.0381C47.3807 68.0712 47.3384 68.109 47.296 68.1468C47.2631 68.1799 47.2301 68.2083 47.1972 68.2414C47.183 68.2556 47.1736 68.2698 47.1595 68.2792C46.9901 68.4589 46.8442 68.6622 46.7359 68.8987C46.7312 68.9081 46.7265 68.9176 46.7218 68.927C46.6983 68.979 46.6747 69.0311 46.6559 69.0831C46.6371 69.1256 46.623 69.1729 46.6088 69.2202C46.6041 69.2438 46.5947 69.2628 46.5853 69.2864C46.5853 69.2959 46.5806 69.3053 46.5806 69.31C46.43 69.8774 46.3312 70.4638 46.2888 71.0454C46.2794 71.192 46.2747 71.3385 46.27 71.4804C46.2653 71.627 46.27 71.7688 46.2747 71.9154C46.2841 72.2038 46.3123 72.4923 46.3547 72.776C46.4629 73.4852 46.6842 74.1709 47.0183 74.7856C47.0842 74.9085 47.1548 75.0314 47.2301 75.1449C47.3807 75.3813 47.5502 75.6036 47.7384 75.8069C48.482 76.6438 49.4987 77.216 50.6047 77.5706L51.1507 77.7456L50.1011 80.9278C50.0964 80.9467 50.0776 80.9562 50.0634 80.9562C50.0446 80.9562 50.0258 80.942 50.0211 80.9183L49.7669 78.7527C48.7833 78.3886 47.8325 77.8449 47.056 77.093C47.0513 77.0883 47.0418 77.0836 47.0371 77.0741C46.9242 76.9654 46.8159 76.8519 46.7124 76.7337C46.0394 75.9913 45.5593 75.0976 45.2628 74.1567C45.1404 73.769 45.0463 73.3765 44.9851 72.9793C44.778 71.6175 44.8957 70.2368 45.2392 68.9365C45.2722 68.8183 45.3051 68.6953 45.3428 68.5771C45.4134 68.3407 45.4934 68.1043 45.5828 67.8726C45.6581 67.674 45.7381 67.4801 45.8229 67.2863C45.8605 67.1964 45.9029 67.1066 45.9452 67.0215C46.0205 66.8607 46.1005 66.6999 46.1853 66.5439C46.2041 66.5061 46.2276 66.473 46.2464 66.4351C46.2935 66.3548 46.3359 66.2697 46.3876 66.1893L46.3217 66.1609L45.7664 65.6881C45.6158 65.7543 45.3522 65.8299 45.0839 65.8819C45.0322 65.8914 44.9757 65.9008 44.9239 65.9056C44.8157 65.9197 44.7121 65.9292 44.618 65.9292C44.458 65.9292 44.2885 65.9245 44.1144 65.9103C44.0297 65.9056 43.945 65.8961 43.8602 65.8867C43.7002 65.8677 43.5402 65.8488 43.3896 65.8252C43.2013 65.7968 43.0225 65.7637 42.8577 65.7306C42.7966 65.7164 42.7401 65.707 42.6836 65.6928C42.7071 65.8725 42.7165 66.0474 42.7165 66.2129C42.7165 66.298 42.7118 66.3784 42.7118 66.4588C42.6507 67.4376 42.2129 68.1516 41.5493 68.5771C41.507 68.6055 41.4646 68.6291 41.4223 68.6575C41.2999 68.7284 41.1728 68.7852 41.0363 68.8325C40.8386 68.9081 40.6268 68.9649 40.4056 69.0027C40.2221 69.0311 40.0291 69.0452 39.8314 69.0452H39.822C39.4267 69.0452 39.0125 68.998 38.5889 68.8703C35.2332 67.8537 33.6659 63.8629 33.6659 63.8629C33.6518 64.104 33.6847 64.3877 33.7412 64.7045C33.7647 64.8322 33.793 64.9646 33.8259 65.1017C33.8541 65.2199 33.8871 65.3382 33.92 65.4611C34.1083 66.1467 34.3766 66.8843 34.6119 67.5463C34.8378 68.1752 35.0402 68.7332 35.1296 69.0973C35.9438 72.4828 37.2899 74.7477 38.6595 76.1095C38.9466 76.3932 39.2478 76.6297 39.5349 76.8661C41.5493 78.5447 44.6651 78.6629 44.6651 78.6629L39.5773 78.7102L39.2808 84.1857H37.8641L37.8123 76.885C35.9438 75.1875 34.6025 72.6814 33.8165 69.4093C33.7506 69.1256 33.5623 68.6102 33.3647 68.0617C32.734 66.3169 32.2586 64.8937 32.3151 63.7872L32.4092 62.0708C32.3339 61.8817 32.2633 61.6925 32.2022 61.5034C32.1927 61.475 32.1739 61.4325 32.1551 61.3757C31.5432 59.7633 30.8608 57.4417 32.0045 55.9475L32.1363 55.7725C32.4893 55.3044 32.8234 54.8599 33.3788 54.5573C33.9671 54.2358 34.5695 54.0703 35.1626 54.0703C35.7273 54.0703 36.2686 54.2169 36.744 54.5006C36.2027 52.8456 36.1321 51.6493 36.4851 50.7036C36.8193 49.8147 37.61 49.1149 38.4148 48.4907L38.4524 48.4624L38.4901 48.434C38.6925 48.2969 38.9184 48.1834 39.1914 48.0841C39.3702 48.0179 39.5396 47.9848 39.6526 47.9611L39.6761 47.9564C39.7467 47.9375 39.822 47.9233 39.9115 47.9091C40.0291 47.8949 40.128 47.8902 40.1938 47.8902H40.2315L40.2692 47.8855C40.3492 47.8808 40.4245 47.876 40.5045 47.876H40.528H40.5515H40.5892H40.6127C40.7728 47.8808 40.9422 47.8949 41.1493 47.928C41.1963 47.9328 41.2481 47.9375 41.2999 47.947C41.587 47.9942 41.8976 48.0746 42.2271 48.1834L42.2506 48.1928L42.26 48.1976C42.5 48.278 42.7542 48.3773 43.0366 48.5049C42.8201 46.8121 42.6836 44.8262 42.7683 42.7079C42.7919 42.1121 42.9236 41.5399 43.1448 41.0103L42.8107 39.6769C41.9635 36.3197 41.5823 34.5371 41.5446 32.8632C41.5399 32.5748 41.5634 32.2911 41.6105 32.0121L41.2575 30.8253C40.5139 28.2956 40.1656 23.6144 43.592 22.0824C44.2415 21.794 45.0604 21.619 45.7852 21.619C47.1595 21.619 48.162 22.2621 48.4585 23.3449C49.4751 27.0094 50.7082 37.7288 50.7318 39.2561L51.1742 48.4198C51.4848 48.1266 51.7907 47.8524 52.0872 47.6065C52.6991 44.1926 53.1274 42.5187 53.7957 40.8921C54.1205 40.1072 54.5111 39.4121 54.9582 38.8164L54.9865 37.6957C55.0665 34.6695 55.5748 32.2958 55.9843 30.8348C56.1396 30.2815 56.3796 29.7709 56.6855 29.3075L56.7373 27.9835C56.7467 27.7329 57.0103 21.8933 61.0202 21.3684C61.2697 21.3353 61.4956 21.3306 61.6697 21.3306H61.6745H61.6792C63.6041 21.3306 64.8514 22.4229 65.0161 24.248C65.0255 24.3662 65.0349 24.4845 65.0349 24.6121C65.0443 24.8202 65.0349 25.0377 65.0114 25.2647Z" fill="white"/>
<path d="M36.2876 55.8193C36.1841 55.7342 36.0617 55.6585 35.9299 55.5923C35.8405 55.5498 35.7464 55.512 35.6475 55.4883C35.5487 55.4599 35.4404 55.441 35.3322 55.4316C35.2757 55.4268 35.2192 55.4221 35.1627 55.4221C35.078 55.4221 34.9933 55.4268 34.9039 55.441C34.8568 55.4458 34.8145 55.4552 34.7674 55.4647C34.7109 55.4741 34.6497 55.493 34.5933 55.5072C34.4144 55.5592 34.2261 55.6349 34.0285 55.7437C33.9861 55.7673 33.9438 55.7909 33.9061 55.8193C33.6567 55.999 33.4496 56.278 33.1813 56.6326C33.1483 56.6752 33.1154 56.7224 33.0778 56.765C32.8801 57.0251 32.7812 57.3608 32.7483 57.7296C32.7201 58.0464 32.7436 58.3869 32.8001 58.7273C32.9648 59.8007 33.4166 60.8598 33.4872 61.0631C33.8261 62.0987 34.3626 63.0349 34.9886 63.9428C35.1251 64.1461 35.271 64.3447 35.4122 64.548C35.5157 64.6899 35.6193 64.8364 35.7275 64.9783C35.8122 65.0965 35.897 65.21 35.9864 65.3235C36.1699 65.5693 36.3535 65.8152 36.5371 66.0658C36.5747 66.1131 36.6124 66.1604 36.6453 66.2077C36.6735 66.2408 36.6971 66.2786 36.7253 66.3117C36.8194 66.4299 36.9136 66.5481 37.0077 66.6569C37.0595 66.7184 37.1112 66.7751 37.1677 66.8366C37.7984 67.5269 38.4291 67.9667 39.0598 68.0376C39.2057 68.0612 39.3421 68.0707 39.4786 68.0707C40.114 68.0707 40.627 67.8248 40.9612 67.4702C40.9659 67.4655 40.9706 67.4607 40.9753 67.456C41.0694 67.352 41.1495 67.2432 41.2153 67.125C41.253 67.0588 41.2812 66.9926 41.3095 66.9217C41.3377 66.8555 41.3565 66.7846 41.3707 66.7136C41.526 66.0138 41.1683 65.2478 40.0858 64.9452C40.034 64.931 39.9822 64.9168 39.9305 64.9121C39.8787 64.9026 39.8269 64.9026 39.7751 64.9026C39.681 64.9026 39.5869 64.9121 39.4975 64.9357C39.2668 64.9877 39.0409 65.1012 38.8338 65.2431C38.7915 65.2715 38.7538 65.2998 38.7115 65.3329C38.4385 65.5362 38.2032 65.7869 38.0337 65.9949C38.0055 66.0327 37.9773 66.0658 37.9537 66.0989L37.629 65.9334L37.4078 65.82C37.4595 65.7159 37.549 65.5504 37.7043 65.3282C37.7984 65.1911 37.9208 65.0303 38.0761 64.8459C38.0855 64.8364 38.0949 64.8223 38.1043 64.8128C38.2408 64.6568 38.3961 64.4818 38.5844 64.2927C37.6196 63.7111 36.7912 62.9971 36.4241 61.8764C36.3253 61.5691 36.2594 61.2334 36.2358 60.8598C36.2264 60.7369 36.2264 60.6092 36.2264 60.4768C36.2264 60.3444 36.2358 60.2073 36.2452 60.0654C36.2547 59.9709 36.2735 59.8716 36.2923 59.7676C36.3158 59.6635 36.3394 59.5548 36.3723 59.4413C36.4053 59.3278 36.4476 59.2143 36.4947 59.1008C36.5182 59.0441 36.5465 58.9826 36.57 58.9259C36.6265 58.8077 36.6877 58.6895 36.763 58.576C36.8006 58.5192 36.8383 58.4578 36.8806 58.401C37.003 58.2261 37.1536 58.0559 37.323 57.8951C37.4972 57.7343 37.6949 57.5783 37.9208 57.4364C37.9019 57.4033 37.8784 57.3702 37.8502 57.3324C37.4925 56.8123 36.7347 56.1787 36.2876 55.8193Z" fill="white"/>
<path d="M92.4033 66.1756L85.4659 50.2644H77.8743L89.6124 75.5332H95.199L106.937 50.2644H99.3455L92.4033 66.1756Z" fill="white"/>
<path d="M154.139 49.5168C146.42 49.5168 140.165 55.5078 140.165 62.8983C140.165 70.2889 146.42 76.2845 154.139 76.2845C160.107 76.2845 165.199 72.7004 167.2 67.6551H159.523C158.187 69.0453 156.266 69.9153 154.134 69.9153C150.793 69.9153 147.978 67.7733 147.098 64.8464H167.957C168.056 64.2081 168.108 63.5556 168.108 62.8936C168.108 61.9385 168.004 61.007 167.807 60.1085C166.47 54.0561 160.86 49.5168 154.139 49.5168ZM147.413 60.1133C148.538 57.6214 151.127 55.8813 154.139 55.8813C157.151 55.8813 159.74 57.6261 160.865 60.1133H147.413Z" fill="white"/>
<path d="M124.351 49.517C121.57 49.517 118.991 50.3728 116.854 51.8386V42.2825L110.006 44.4623V75.5376H116.524L116.548 73.7408C118.741 75.339 121.429 76.2894 124.347 76.2894C131.703 76.2894 137.671 70.2985 137.671 62.9032C137.671 55.5079 131.712 49.517 124.351 49.517ZM123.744 69.8776C119.908 69.8776 116.797 66.7521 116.797 62.8985C116.797 59.0448 119.908 55.9193 123.744 55.9193C127.58 55.9193 130.691 59.0448 130.691 62.8985C130.691 66.7521 127.58 69.8776 123.744 69.8776Z" fill="white"/>
<path d="M184.948 56.2553V50.2643H177.963V42.2307L170.979 44.4578V62.8987C170.979 70.294 176.288 76.2802 184.021 76.2802H184.953V69.9157C181.089 69.9157 177.968 66.7808 177.968 62.8987V56.2553H184.948Z" fill="white"/>
<path d="M700.894 41.9548C699.807 41.9548 698.918 42.8413 698.918 43.9258C698.918 45.0103 699.807 45.8968 700.894 45.8968C701.982 45.8968 702.871 45.0103 702.871 43.9258C702.871 42.8413 701.991 41.9548 700.894 41.9548Z" fill="white"/>
<path d="M692.117 44.4827C687.54 44.4827 683.823 48.1983 683.823 52.7532C683.823 57.3176 687.549 61.0238 692.117 61.0238C696.695 61.0238 700.412 57.3082 700.412 52.7532C700.412 48.1983 696.695 44.4827 692.117 44.4827ZM692.117 58.0532C689.185 58.0532 686.802 55.6767 686.802 52.7532C686.802 49.8298 689.185 47.4533 692.117 47.4533C695.049 47.4533 697.433 49.8298 697.433 52.7532C697.433 55.6767 695.049 58.0532 692.117 58.0532Z" fill="white"/>
<path d="M698.7 69.5587H685.251C679.671 69.5587 675.131 65.032 675.131 59.468V46.0484C675.131 40.4844 679.671 35.9578 685.251 35.9578H698.7C704.28 35.9578 708.82 40.4844 708.82 46.0484V59.4586C708.829 65.032 704.29 69.5587 698.7 69.5587ZM685.251 39.117C681.421 39.117 678.3 42.2291 678.3 46.0484V59.4586C678.3 63.278 681.421 66.39 685.251 66.39H698.7C702.53 66.39 705.651 63.278 705.651 59.4586V46.0484C705.651 42.2291 702.53 39.117 698.7 39.117H685.251Z" fill="white"/>
<path d="M750.608 54.8551L751.544 48.7741H745.691V44.8333C745.691 43.174 746.504 41.5524 749.123 41.5524H751.78V36.3765C751.78 36.3765 749.369 35.9617 747.062 35.9617C742.24 35.9617 739.101 38.8749 739.101 44.1451V48.7741H733.749V54.8551H739.101V69.5532H745.691V54.8551H750.608Z" fill="white"/>
<path d="M809.362 41.4182C809.057 43.4837 808.711 45.9174 808.326 48.3512C807.507 53.5789 806.664 58.8067 805.821 64.0344C805.516 65.9478 804.681 66.5082 802.802 66.0359C802.152 65.8758 801.469 65.6516 800.915 65.2833C797.92 63.2819 794.942 61.2644 792.003 59.183C790.518 58.1342 790.566 57.2696 791.883 56.0367C794.717 53.3868 797.527 50.6969 800.337 48.0149C800.682 47.6867 800.955 47.2784 801.196 46.8621C801.309 46.67 801.26 46.3898 801.285 46.1496C801.044 46.1416 800.771 46.0455 800.578 46.1336C799.912 46.4458 799.245 46.766 798.635 47.1663C794.789 49.7282 790.951 52.306 787.122 54.8999C785.845 55.7645 784.488 55.9246 783.059 55.5003C781.269 54.9639 779.478 54.4035 777.72 53.7631C777.302 53.611 776.796 53.1786 776.716 52.7944C776.652 52.4741 777.094 51.9698 777.423 51.6736C777.744 51.3854 778.202 51.2252 778.619 51.0491C787.772 47.2864 796.917 43.5157 806.07 39.753C806.535 39.5609 807.033 39.4008 807.531 39.3447C808.816 39.1926 809.394 39.761 809.362 41.4182Z" fill="white"/>
<path d="M867.916 51.1924C867.122 42.6595 859.9 35.9617 851.137 35.9617C842.383 35.9617 835.161 42.6595 834.367 51.1924H834.292V54.3224H834.367C835.161 62.8554 842.383 69.5532 851.137 69.5532C859.9 69.5532 867.122 62.8554 867.906 54.3224H867.981V51.1924H867.916ZM864.758 51.1924H858.405C858.246 46.9818 857.452 42.8737 856.042 39.9953C860.722 41.7931 864.169 46.0689 864.758 51.1924ZM851.137 66.4325C849.81 66.4325 847.306 62.1753 847.007 54.3224H855.275C854.976 62.1753 852.463 66.4325 851.137 66.4325ZM847.007 51.1924C847.306 43.3488 849.81 39.0823 851.137 39.0823C852.463 39.0823 854.967 43.3395 855.266 51.1924H847.007ZM846.232 39.9953C844.831 42.883 844.027 46.9818 843.868 51.1924H837.516C838.104 46.0689 841.552 41.7931 846.232 39.9953ZM837.516 54.3224H843.868C844.027 58.533 844.821 62.6411 846.232 65.5196C841.552 63.731 838.104 59.4552 837.516 54.3224ZM856.051 65.5196C857.452 62.6318 858.256 58.533 858.414 54.3224H864.767C864.169 59.4552 860.722 63.731 856.051 65.5196Z" fill="white"/>
</svg>
