<svg width="280" height="123" viewBox="0 0 280 123" fill="none" xmlns="http://www.w3.org/2000/svg">
<rect y="0.350281" width="280" height="75" rx="10" fill="#352063"/>
<path d="M85.8922 29.4348L85.4117 32.1887H77.9586L75.4742 46.4973H72.0641L75.0172 29.4348H85.8922ZM88.452 36.4426L85.8622 51.3723H82.5575L85.6044 33.8176H88.6513L88.452 36.4426ZM95.6005 39.9465L95.5653 40.1926C95.4716 40.9583 95.2919 41.7317 95.0263 42.5129C94.7684 43.2942 94.413 44.009 93.9598 44.6575C93.5067 45.2981 92.9481 45.8137 92.2841 46.2043C91.62 46.5872 90.8388 46.7668 89.9403 46.7434C89.1513 46.72 88.495 46.5129 87.9716 46.1223C87.4481 45.7317 87.038 45.2317 86.7411 44.6223C86.4442 44.0051 86.2372 43.3411 86.12 42.6301C86.0028 41.9192 85.9559 41.2395 85.9794 40.5911L86.0614 39.9348C86.1786 39.2239 86.3817 38.4934 86.6708 37.7434C86.9598 36.9856 87.3348 36.2903 87.7958 35.6575C88.2567 35.0168 88.8075 34.5051 89.4481 34.1223C90.0888 33.7317 90.827 33.5481 91.663 33.5715C92.5302 33.595 93.2372 33.802 93.7841 34.1926C94.3388 34.5833 94.7606 35.0911 95.0497 35.7161C95.3388 36.3411 95.5184 37.0247 95.5888 37.7668C95.6669 38.5012 95.6708 39.2278 95.6005 39.9465ZM92.2723 40.1809L92.3075 39.9348C92.3388 39.5911 92.3544 39.2122 92.3544 38.7981C92.3544 38.3762 92.3075 37.9739 92.2138 37.5911C92.12 37.2083 91.9481 36.8879 91.6981 36.6301C91.4481 36.3723 91.0888 36.2356 90.62 36.22C90.1434 36.1965 89.7255 36.2708 89.3661 36.4426C89.0067 36.6145 88.702 36.8567 88.452 37.1692C88.2098 37.4739 88.0106 37.8215 87.8544 38.2122C87.6981 38.6028 87.5848 39.0051 87.5145 39.4192L87.2802 41.0598C87.2411 41.5364 87.2723 42.009 87.3739 42.4778C87.4755 42.9387 87.6747 43.3215 87.9716 43.6262C88.2763 43.9309 88.7138 44.0911 89.2841 44.1067C89.7997 44.1145 90.2372 43.9973 90.5966 43.7551C90.9559 43.5129 91.2489 43.1926 91.4755 42.7942C91.7098 42.3879 91.8895 41.9543 92.0145 41.4934C92.1395 41.0325 92.2255 40.595 92.2723 40.1809ZM104.406 43.6379L105.297 37.9543C105.336 37.6106 105.32 37.2903 105.25 36.9934C105.18 36.6965 105.035 36.4622 104.817 36.2903C104.606 36.1106 104.305 36.0129 103.914 35.9973C103.563 35.9895 103.246 36.052 102.965 36.1848C102.692 36.3098 102.465 36.4934 102.285 36.7356C102.106 36.97 101.981 37.2512 101.91 37.5793L98.6056 37.6028C98.6447 36.8997 98.84 36.2942 99.1916 35.7864C99.5509 35.2708 100.004 34.8489 100.551 34.5208C101.098 34.1926 101.692 33.9504 102.332 33.7942C102.981 33.6379 103.613 33.5676 104.231 33.5833C105.113 33.5989 105.899 33.7825 106.586 34.134C107.281 34.4856 107.813 34.9895 108.18 35.6458C108.555 36.2942 108.695 37.0833 108.602 38.0129L107.723 43.4504C107.653 43.9036 107.598 44.3801 107.559 44.8801C107.52 45.3723 107.59 45.8411 107.77 46.2864L107.746 46.4973L104.512 46.509C104.363 46.0481 104.289 45.5754 104.289 45.0911C104.297 44.5989 104.336 44.1145 104.406 43.6379ZM105.672 38.7747L105.356 40.6848L103.68 40.6731C103.344 40.6809 103.008 40.7278 102.672 40.8137C102.344 40.8918 102.039 41.0168 101.758 41.1887C101.477 41.3528 101.242 41.5676 101.055 41.8333C100.875 42.0989 100.762 42.4231 100.715 42.8059C100.676 43.0793 100.703 43.3254 100.797 43.5442C100.891 43.7551 101.035 43.9231 101.231 44.0481C101.434 44.1731 101.676 44.2395 101.957 44.2473C102.356 44.2551 102.746 44.1809 103.129 44.0247C103.512 43.8606 103.844 43.6301 104.125 43.3333C104.406 43.0364 104.602 42.6926 104.711 42.302L105.414 43.7668C105.227 44.2043 104.988 44.6067 104.699 44.9739C104.418 45.3411 104.094 45.6614 103.727 45.9348C103.36 46.2004 102.957 46.4036 102.52 46.5442C102.082 46.6926 101.613 46.7629 101.113 46.7551C100.418 46.7395 99.7775 46.5754 99.1916 46.2629C98.6134 45.9426 98.1525 45.509 97.8088 44.9622C97.4728 44.4075 97.3205 43.7629 97.3517 43.0286C97.383 42.2004 97.59 41.5129 97.9728 40.9661C98.3556 40.4114 98.8478 39.9739 99.4494 39.6536C100.059 39.3333 100.719 39.1067 101.43 38.9739C102.149 38.8333 102.86 38.7629 103.563 38.7629L105.672 38.7747ZM118.72 33.8176L116.517 46.4973H113.212L115.415 33.8176H118.72ZM122.681 33.8176L122.224 36.4309H111.056L111.513 33.8176H122.681ZM126.975 41.5754L132.343 33.8176H135.729L133.526 46.4973H130.221L131.581 38.7278L126.214 46.4973H122.827L125.03 33.8176H128.323L126.975 41.5754ZM150.107 40.4622L147.47 40.4504L147.74 38.9387L149.322 38.9504C149.65 38.9348 149.958 38.8762 150.247 38.7747C150.544 38.6731 150.794 38.5168 150.997 38.3059C151.2 38.0872 151.329 37.802 151.384 37.4504C151.431 37.1458 151.404 36.8918 151.302 36.6887C151.208 36.4856 151.052 36.3293 150.833 36.22C150.622 36.1106 150.372 36.052 150.083 36.0442C149.763 36.0364 149.462 36.0833 149.181 36.1848C148.9 36.2786 148.658 36.4309 148.454 36.6418C148.259 36.8528 148.122 37.1184 148.044 37.4387L144.728 37.4504C144.783 36.5442 145.079 35.8059 145.618 35.2356C146.158 34.6575 146.822 34.2356 147.611 33.97C148.408 33.6965 149.212 33.5676 150.025 33.5833C150.595 33.5911 151.161 33.6614 151.724 33.7942C152.294 33.927 152.81 34.134 153.271 34.4153C153.74 34.6887 154.111 35.0559 154.384 35.5168C154.658 35.97 154.783 36.5286 154.759 37.1926C154.736 37.7864 154.575 38.2903 154.279 38.7043C153.982 39.1184 153.603 39.4543 153.142 39.7122C152.689 39.97 152.193 40.1614 151.654 40.2864C151.122 40.4036 150.607 40.4622 150.107 40.4622ZM147.622 39.6067L149.872 39.6184C150.38 39.634 150.884 39.6965 151.384 39.8059C151.884 39.9153 152.333 40.0911 152.732 40.3333C153.13 40.5754 153.443 40.8997 153.669 41.3059C153.896 41.7122 153.997 42.2161 153.974 42.8176C153.95 43.552 153.755 44.1731 153.388 44.6809C153.029 45.1809 152.564 45.5833 151.993 45.8879C151.423 46.1926 150.806 46.4114 150.142 46.5442C149.478 46.6848 148.841 46.7473 148.232 46.7317C147.411 46.7161 146.642 46.5637 145.923 46.2747C145.204 45.9778 144.622 45.5364 144.177 44.9504C143.732 44.3645 143.509 43.6223 143.509 42.7239L146.767 42.7356C146.767 43.0872 146.845 43.3762 147.001 43.6028C147.158 43.8215 147.368 43.9856 147.634 44.095C147.908 44.2043 148.212 44.2551 148.548 44.2473C148.9 44.2551 149.232 44.1965 149.544 44.0715C149.865 43.9465 150.134 43.7629 150.353 43.5208C150.579 43.2708 150.72 42.9622 150.775 42.595C150.829 42.2356 150.798 41.9504 150.681 41.7395C150.572 41.5208 150.396 41.3645 150.154 41.2708C149.911 41.1692 149.626 41.1106 149.298 41.095L147.353 41.0833L147.622 39.6067ZM163.249 43.6379L164.139 37.9543C164.178 37.6106 164.163 37.2903 164.092 36.9934C164.022 36.6965 163.878 36.4622 163.659 36.2903C163.448 36.1106 163.147 36.0129 162.756 35.9973C162.405 35.9895 162.088 36.052 161.807 36.1848C161.534 36.3098 161.307 36.4934 161.128 36.7356C160.948 36.97 160.823 37.2512 160.753 37.5793L157.448 37.6028C157.487 36.8997 157.682 36.2942 158.034 35.7864C158.393 35.2708 158.846 34.8489 159.393 34.5208C159.94 34.1926 160.534 33.9504 161.174 33.7942C161.823 33.6379 162.456 33.5676 163.073 33.5833C163.956 33.5989 164.741 33.7825 165.428 34.134C166.124 34.4856 166.655 34.9895 167.022 35.6458C167.397 36.2942 167.538 37.0833 167.444 38.0129L166.565 43.4504C166.495 43.9036 166.44 44.3801 166.401 44.8801C166.362 45.3723 166.432 45.8411 166.612 46.2864L166.588 46.4973L163.354 46.509C163.206 46.0481 163.131 45.5754 163.131 45.0911C163.139 44.5989 163.178 44.1145 163.249 43.6379ZM164.514 38.7747L164.198 40.6848L162.522 40.6731C162.186 40.6809 161.85 40.7278 161.514 40.8137C161.186 40.8918 160.881 41.0168 160.6 41.1887C160.319 41.3528 160.085 41.5676 159.897 41.8333C159.717 42.0989 159.604 42.4231 159.557 42.8059C159.518 43.0793 159.545 43.3254 159.639 43.5442C159.733 43.7551 159.878 43.9231 160.073 44.0481C160.276 44.1731 160.518 44.2395 160.799 44.2473C161.198 44.2551 161.588 44.1809 161.971 44.0247C162.354 43.8606 162.686 43.6301 162.967 43.3333C163.249 43.0364 163.444 42.6926 163.553 42.302L164.256 43.7668C164.069 44.2043 163.831 44.6067 163.542 44.9739C163.26 45.3411 162.936 45.6614 162.569 45.9348C162.202 46.2004 161.799 46.4036 161.362 46.5442C160.924 46.6926 160.456 46.7629 159.956 46.7551C159.26 46.7395 158.62 46.5754 158.034 46.2629C157.456 45.9426 156.995 45.509 156.651 44.9622C156.315 44.4075 156.163 43.7629 156.194 43.0286C156.225 42.2004 156.432 41.5129 156.815 40.9661C157.198 40.4114 157.69 39.9739 158.292 39.6536C158.901 39.3333 159.561 39.1067 160.272 38.9739C160.991 38.8333 161.702 38.7629 162.405 38.7629L164.514 38.7747ZM174.305 36.4426L171.715 51.3723H168.41L171.457 33.8176H174.504L174.305 36.4426ZM181.453 39.9465L181.418 40.1926C181.324 40.9583 181.144 41.7317 180.879 42.5129C180.621 43.2942 180.265 44.009 179.812 44.6575C179.359 45.2981 178.801 45.8137 178.137 46.2043C177.473 46.5872 176.691 46.7668 175.793 46.7434C175.004 46.72 174.348 46.5129 173.824 46.1223C173.301 45.7317 172.89 45.2317 172.594 44.6223C172.297 44.0051 172.09 43.3411 171.973 42.6301C171.855 41.9192 171.808 41.2395 171.832 40.5911L171.914 39.9348C172.031 39.2239 172.234 38.4934 172.523 37.7434C172.812 36.9856 173.187 36.2903 173.648 35.6575C174.109 35.0168 174.66 34.5051 175.301 34.1223C175.941 33.7317 176.68 33.5481 177.515 33.5715C178.383 33.595 179.09 33.802 179.637 34.1926C180.191 34.5833 180.613 35.0911 180.902 35.7161C181.191 36.3411 181.371 37.0247 181.441 37.7668C181.519 38.5012 181.523 39.2278 181.453 39.9465ZM178.125 40.1809L178.16 39.9348C178.191 39.5911 178.207 39.2122 178.207 38.7981C178.207 38.3762 178.16 37.9739 178.066 37.5911C177.973 37.2083 177.801 36.8879 177.551 36.6301C177.301 36.3723 176.941 36.2356 176.473 36.22C175.996 36.1965 175.578 36.2708 175.219 36.4426C174.859 36.6145 174.555 36.8567 174.305 37.1692C174.062 37.4739 173.863 37.8215 173.707 38.2122C173.551 38.6028 173.437 39.0051 173.367 39.4192L173.133 41.0598C173.094 41.5364 173.125 42.009 173.226 42.4778C173.328 42.9387 173.527 43.3215 173.824 43.6262C174.129 43.9309 174.566 44.0911 175.137 44.1067C175.652 44.1145 176.09 43.9973 176.449 43.7551C176.808 43.5129 177.101 43.1926 177.328 42.7942C177.562 42.3879 177.742 41.9543 177.867 41.4934C177.992 41.0325 178.078 40.595 178.125 40.1809ZM190.259 43.6379L191.15 37.9543C191.189 37.6106 191.173 37.2903 191.103 36.9934C191.032 36.6965 190.888 36.4622 190.669 36.2903C190.458 36.1106 190.157 36.0129 189.767 35.9973C189.415 35.9895 189.099 36.052 188.818 36.1848C188.544 36.3098 188.318 36.4934 188.138 36.7356C187.958 36.97 187.833 37.2512 187.763 37.5793L184.458 37.6028C184.497 36.8997 184.693 36.2942 185.044 35.7864C185.403 35.2708 185.857 34.8489 186.403 34.5208C186.95 34.1926 187.544 33.9504 188.185 33.7942C188.833 33.6379 189.466 33.5676 190.083 33.5833C190.966 33.5989 191.751 33.7825 192.439 34.134C193.134 34.4856 193.665 34.9895 194.032 35.6458C194.407 36.2942 194.548 37.0833 194.454 38.0129L193.575 43.4504C193.505 43.9036 193.45 44.3801 193.411 44.8801C193.372 45.3723 193.443 45.8411 193.622 46.2864L193.599 46.4973L190.364 46.509C190.216 46.0481 190.142 45.5754 190.142 45.0911C190.15 44.5989 190.189 44.1145 190.259 43.6379ZM191.525 38.7747L191.208 40.6848L189.532 40.6731C189.196 40.6809 188.86 40.7278 188.525 40.8137C188.196 40.8918 187.892 41.0168 187.61 41.1887C187.329 41.3528 187.095 41.5676 186.907 41.8333C186.728 42.0989 186.614 42.4231 186.568 42.8059C186.528 43.0793 186.556 43.3254 186.65 43.5442C186.743 43.7551 186.888 43.9231 187.083 44.0481C187.286 44.1731 187.528 44.2395 187.81 44.2473C188.208 44.2551 188.599 44.1809 188.982 44.0247C189.364 43.8606 189.696 43.6301 189.978 43.3333C190.259 43.0364 190.454 42.6926 190.564 42.302L191.267 43.7668C191.079 44.2043 190.841 44.6067 190.552 44.9739C190.271 45.3411 189.946 45.6614 189.579 45.9348C189.212 46.2004 188.81 46.4036 188.372 46.5442C187.935 46.6926 187.466 46.7629 186.966 46.7551C186.271 46.7395 185.63 46.5754 185.044 46.2629C184.466 45.9426 184.005 45.509 183.661 44.9622C183.325 44.4075 183.173 43.7629 183.204 43.0286C183.235 42.2004 183.443 41.5129 183.825 40.9661C184.208 40.4114 184.7 39.9739 185.302 39.6536C185.911 39.3333 186.571 39.1067 187.282 38.9739C188.001 38.8333 188.712 38.7629 189.415 38.7629L191.525 38.7747ZM203.002 40.4622L200.366 40.4504L200.635 38.9387L202.217 38.9504C202.545 38.9348 202.854 38.8762 203.143 38.7747C203.44 38.6731 203.69 38.5168 203.893 38.3059C204.096 38.0872 204.225 37.802 204.28 37.4504C204.327 37.1458 204.299 36.8918 204.198 36.6887C204.104 36.4856 203.948 36.3293 203.729 36.22C203.518 36.1106 203.268 36.052 202.979 36.0442C202.659 36.0364 202.358 36.0833 202.077 36.1848C201.795 36.2786 201.553 36.4309 201.35 36.6418C201.155 36.8528 201.018 37.1184 200.94 37.4387L197.623 37.4504C197.678 36.5442 197.975 35.8059 198.514 35.2356C199.053 34.6575 199.717 34.2356 200.506 33.97C201.303 33.6965 202.108 33.5676 202.92 33.5833C203.491 33.5911 204.057 33.6614 204.62 33.7942C205.19 33.927 205.705 34.134 206.166 34.4153C206.635 34.6887 207.006 35.0559 207.28 35.5168C207.553 35.97 207.678 36.5286 207.655 37.1926C207.631 37.7864 207.471 38.2903 207.174 38.7043C206.877 39.1184 206.498 39.4543 206.037 39.7122C205.584 39.97 205.088 40.1614 204.549 40.2864C204.018 40.4036 203.502 40.4622 203.002 40.4622ZM200.518 39.6067L202.768 39.6184C203.276 39.634 203.78 39.6965 204.28 39.8059C204.78 39.9153 205.229 40.0911 205.627 40.3333C206.026 40.5754 206.338 40.8997 206.565 41.3059C206.791 41.7122 206.893 42.2161 206.87 42.8176C206.846 43.552 206.651 44.1731 206.284 44.6809C205.924 45.1809 205.459 45.5833 204.889 45.8879C204.319 46.1926 203.702 46.4114 203.037 46.5442C202.373 46.6848 201.737 46.7473 201.127 46.7317C200.307 46.7161 199.537 46.5637 198.819 46.2747C198.1 45.9778 197.518 45.5364 197.073 44.9504C196.627 44.3645 196.405 43.6223 196.405 42.7239L199.662 42.7356C199.662 43.0872 199.741 43.3762 199.897 43.6028C200.053 43.8215 200.264 43.9856 200.53 44.095C200.803 44.2043 201.108 44.2551 201.444 44.2473C201.795 44.2551 202.127 44.1965 202.44 44.0715C202.76 43.9465 203.03 43.7629 203.248 43.5208C203.475 43.2708 203.616 42.9622 203.67 42.595C203.725 42.2356 203.694 41.9504 203.577 41.7395C203.467 41.5208 203.291 41.3645 203.049 41.2708C202.807 41.1692 202.522 41.1106 202.194 41.095L200.248 41.0833L200.518 39.6067Z" fill="white"/>
<rect x="152.688" y="115.35" width="7.44663" height="7.44663" fill="white"/>
<rect x="119.866" y="115.35" width="7.44663" height="7.44663" fill="white"/>
<rect x="136.277" y="115.35" width="7.44663" height="7.44663" fill="white"/>
</svg>
