<svg width="501" height="38" viewBox="0 0 501 38" fill="none" xmlns="http://www.w3.org/2000/svg">
<path d="M25.25 0.698547L24.3125 5.99152H10.0352L10.9531 0.698547H25.25ZM29.7422 0.698547L24.8008 29.136H18.1211L23.043 0.698547H29.7422ZM10.4844 0.698547H17.2031L13.9414 15.1321C13.6549 16.4993 13.3229 17.8665 12.9453 19.2337C12.5807 20.5879 12.1185 21.8704 11.5586 23.0814C10.9987 24.2793 10.3021 25.3405 9.46875 26.265C8.63542 27.1894 7.61979 27.9121 6.42188 28.4329C5.22396 28.9407 3.79818 29.1751 2.14453 29.136H0.152344L0.933594 23.8626L1.55859 23.804C2.5612 23.7129 3.40755 23.4004 4.09766 22.8665C4.78776 22.3327 5.35417 21.6621 5.79688 20.8548C6.2526 20.0345 6.61719 19.1491 6.89062 18.1985C7.16406 17.248 7.38542 16.304 7.55469 15.3665C7.72396 14.429 7.88021 13.5762 8.02344 12.8079L10.4844 0.698547ZM40.25 23.8235L41.6172 15.0345C41.6693 14.5657 41.6628 14.1165 41.5977 13.6868C41.5456 13.2571 41.3828 12.9056 41.1094 12.6321C40.849 12.3457 40.4388 12.1959 39.8789 12.1829C39.3711 12.1699 38.9414 12.261 38.5898 12.4564C38.2383 12.6517 37.9583 12.9251 37.75 13.2767C37.5417 13.6282 37.3919 14.0319 37.3008 14.4876L30.8555 14.5267C30.9076 13.3027 31.2331 12.248 31.832 11.3626C32.431 10.4772 33.1992 9.75454 34.1367 9.19464C35.0742 8.63475 36.0964 8.22459 37.2031 7.96417C38.3229 7.70376 39.4232 7.58657 40.5039 7.61261C41.9883 7.63865 43.3294 7.95115 44.5273 8.55011C45.7383 9.13605 46.6693 9.98891 47.3203 11.1087C47.9844 12.2155 48.2383 13.5631 48.082 15.1517L46.6953 23.8235C46.5781 24.6048 46.474 25.4381 46.3828 26.3235C46.2917 27.1959 46.4219 28.0097 46.7734 28.765L46.7539 29.136L40.4844 29.1556C40.1979 28.3092 40.0547 27.4303 40.0547 26.5189C40.0547 25.6074 40.1198 24.709 40.25 23.8235ZM42.3398 16.2259L41.7539 19.7415L39.2344 19.722C38.7396 19.735 38.2643 19.8196 37.8086 19.9759C37.3659 20.1191 36.9688 20.3275 36.6172 20.6009C36.2656 20.8743 35.9727 21.2129 35.7383 21.6165C35.5169 22.0202 35.3737 22.4824 35.3086 23.0032C35.2565 23.3548 35.2826 23.6738 35.3867 23.9603C35.5039 24.2337 35.6797 24.4551 35.9141 24.6243C36.1615 24.7936 36.4674 24.8847 36.832 24.8978C37.3919 24.9108 37.9323 24.8066 38.4531 24.5853C38.974 24.3639 39.4232 24.0514 39.8008 23.6478C40.1914 23.2441 40.4583 22.7754 40.6016 22.2415L41.7344 24.9954C41.3958 25.6725 41.0052 26.291 40.5625 26.8509C40.1328 27.4108 39.6445 27.8991 39.0977 28.3157C38.5638 28.7194 37.9648 29.0319 37.3008 29.2532C36.6367 29.4746 35.901 29.5788 35.0938 29.5657C33.9349 29.5397 32.8672 29.2597 31.8906 28.7259C30.9141 28.192 30.1393 27.4629 29.5664 26.5384C28.9935 25.6139 28.7266 24.5462 28.7656 23.3353C28.8177 21.929 29.1628 20.7637 29.8008 19.8392C30.4388 18.9147 31.2656 18.192 32.2812 17.6712C33.3099 17.1373 34.4232 16.7597 35.6211 16.5384C36.832 16.317 38.0299 16.2064 39.2148 16.2064L42.3398 16.2259ZM58.8047 24.4681C59.4167 24.4811 59.944 24.3704 60.3867 24.136C60.8294 23.8887 61.181 23.5501 61.4414 23.1204C61.7148 22.6777 61.8906 22.1699 61.9688 21.597L68.0039 21.5775C67.9258 23.2441 67.4375 24.6764 66.5391 25.8743C65.6536 27.0722 64.5143 27.9902 63.1211 28.6282C61.7279 29.2663 60.2305 29.5657 58.6289 29.5267C57.0924 29.5006 55.7708 29.2012 54.6641 28.6282C53.5573 28.0423 52.6589 27.261 51.9688 26.2845C51.2786 25.2949 50.7904 24.1621 50.5039 22.886C50.2305 21.61 50.1589 20.2623 50.2891 18.8431L50.3477 18.3743C50.5039 16.89 50.8555 15.4902 51.4023 14.1751C51.9622 12.86 52.7044 11.7077 53.6289 10.7181C54.5534 9.71547 55.6471 8.94073 56.9102 8.39386C58.1862 7.83396 59.6185 7.57355 61.207 7.61261C62.8997 7.63865 64.3385 8.01626 65.5234 8.74542C66.7214 9.47459 67.6263 10.4707 68.2383 11.7337C68.8503 12.9967 69.1367 14.4551 69.0977 16.1087L63.0625 16.0892C63.0885 15.5293 63.0365 14.9954 62.9062 14.4876C62.7891 13.9668 62.5547 13.5436 62.2031 13.2181C61.8516 12.8795 61.3438 12.6972 60.6797 12.6712C59.9115 12.6452 59.2865 12.8144 58.8047 13.179C58.3229 13.5436 57.9388 14.0254 57.6523 14.6243C57.3789 15.2103 57.1771 15.8418 57.0469 16.5189C56.9167 17.1829 56.819 17.8079 56.7539 18.3939L56.7344 18.8431C56.6823 19.3118 56.6302 19.8652 56.5781 20.5032C56.5391 21.1282 56.5586 21.7402 56.6367 22.3392C56.7279 22.9381 56.9362 23.4394 57.2617 23.8431C57.5872 24.2337 58.1016 24.442 58.8047 24.4681ZM79.9766 8.00323L76.3242 29.136H69.8984L73.5508 8.00323H79.9766ZM93.4531 8.00323L82.6523 21.7532H76.7539L77.0859 15.6009H80.3281L84.8984 8.00323H93.4531ZM81.6562 29.136L79.2539 20.347L85.3867 17.7103L90.1133 29.136H81.6562ZM103.336 23.8235L104.703 15.0345C104.755 14.5657 104.749 14.1165 104.684 13.6868C104.632 13.2571 104.469 12.9056 104.195 12.6321C103.935 12.3457 103.525 12.1959 102.965 12.1829C102.457 12.1699 102.027 12.261 101.676 12.4564C101.324 12.6517 101.044 12.9251 100.836 13.2767C100.628 13.6282 100.478 14.0319 100.387 14.4876L93.9414 14.5267C93.9935 13.3027 94.319 12.248 94.918 11.3626C95.5169 10.4772 96.2852 9.75454 97.2227 9.19464C98.1602 8.63475 99.1823 8.22459 100.289 7.96417C101.409 7.70376 102.509 7.58657 103.59 7.61261C105.074 7.63865 106.415 7.95115 107.613 8.55011C108.824 9.13605 109.755 9.98891 110.406 11.1087C111.07 12.2155 111.324 13.5631 111.168 15.1517L109.781 23.8235C109.664 24.6048 109.56 25.4381 109.469 26.3235C109.378 27.1959 109.508 28.0097 109.859 28.765L109.84 29.136L103.57 29.1556C103.284 28.3092 103.141 27.4303 103.141 26.5189C103.141 25.6074 103.206 24.709 103.336 23.8235ZM105.426 16.2259L104.84 19.7415L102.32 19.722C101.826 19.735 101.35 19.8196 100.895 19.9759C100.452 20.1191 100.055 20.3275 99.7031 20.6009C99.3516 20.8743 99.0586 21.2129 98.8242 21.6165C98.6029 22.0202 98.4596 22.4824 98.3945 23.0032C98.3424 23.3548 98.3685 23.6738 98.4727 23.9603C98.5898 24.2337 98.7656 24.4551 99 24.6243C99.2474 24.7936 99.5534 24.8847 99.918 24.8978C100.478 24.9108 101.018 24.8066 101.539 24.5853C102.06 24.3639 102.509 24.0514 102.887 23.6478C103.277 23.2441 103.544 22.7754 103.688 22.2415L104.82 24.9954C104.482 25.6725 104.091 26.291 103.648 26.8509C103.219 27.4108 102.73 27.8991 102.184 28.3157C101.65 28.7194 101.051 29.0319 100.387 29.2532C99.7227 29.4746 98.987 29.5788 98.1797 29.5657C97.0208 29.5397 95.9531 29.2597 94.9766 28.7259C94 28.192 93.2253 27.4629 92.6523 26.5384C92.0794 25.6139 91.8125 24.5462 91.8516 23.3353C91.9036 21.929 92.2487 20.7637 92.8867 19.8392C93.5247 18.9147 94.3516 18.192 95.3672 17.6712C96.3958 17.1373 97.5091 16.7597 98.707 16.5384C99.918 16.317 101.116 16.2064 102.301 16.2064L105.426 16.2259ZM124.547 20.5423L118.102 20.5228L118.785 16.4603L123.707 16.4798C124.111 16.4538 124.495 16.3952 124.859 16.304C125.237 16.1998 125.562 16.0306 125.836 15.7962C126.109 15.5488 126.292 15.2038 126.383 14.761C126.461 14.4355 126.467 14.1686 126.402 13.9603C126.35 13.7389 126.246 13.5696 126.09 13.4525C125.934 13.3222 125.738 13.2311 125.504 13.179C125.27 13.1139 125.009 13.0748 124.723 13.0618L121.988 13.0423L119.215 29.136H112.789L116.441 8.00323L124.898 8.02277C125.823 8.03579 126.767 8.13344 127.73 8.31573C128.694 8.49803 129.579 8.80402 130.387 9.2337C131.194 9.65037 131.839 10.2298 132.32 10.972C132.802 11.7142 133.023 12.6517 132.984 13.7845C132.958 14.748 132.698 15.5488 132.203 16.1868C131.708 16.8118 131.07 17.3131 130.289 17.6907C129.521 18.0683 128.701 18.3483 127.828 18.5306C126.956 18.7129 126.135 18.8301 125.367 18.8821L124.547 20.5423ZM123.277 29.136H115.094L117.926 24.097L123.473 24.1165C123.915 24.0905 124.332 24.0254 124.723 23.9212C125.113 23.804 125.452 23.6152 125.738 23.3548C126.025 23.0814 126.22 22.7103 126.324 22.2415C126.415 21.8248 126.402 21.4993 126.285 21.265C126.181 21.0176 125.992 20.8418 125.719 20.7376C125.445 20.6204 125.12 20.5553 124.742 20.5423L119.371 20.5228L120.133 16.4603L125.328 16.4798L126.344 18.1204C127.294 18.2246 128.251 18.4394 129.215 18.765C130.178 19.0775 130.979 19.5722 131.617 20.2493C132.255 20.9134 132.568 21.8118 132.555 22.9446C132.516 24.1946 132.21 25.2233 131.637 26.0306C131.077 26.8379 130.335 27.4694 129.41 27.9251C128.499 28.3808 127.503 28.6998 126.422 28.8821C125.354 29.0644 124.306 29.1491 123.277 29.136ZM135.191 18.9017L135.23 18.4915C135.4 16.9681 135.771 15.5423 136.344 14.2142C136.917 12.886 137.678 11.7207 138.629 10.7181C139.592 9.71547 140.725 8.94073 142.027 8.39386C143.329 7.83396 144.788 7.57355 146.402 7.61261C147.952 7.63865 149.293 7.93813 150.426 8.51105C151.559 9.08396 152.49 9.86521 153.219 10.8548C153.948 11.8314 154.462 12.9642 154.762 14.2532C155.074 15.5293 155.165 16.89 155.035 18.3353L154.996 18.765C154.827 20.2754 154.449 21.6881 153.863 23.0032C153.277 24.3183 152.503 25.4707 151.539 26.4603C150.589 27.4498 149.462 28.2181 148.16 28.765C146.858 29.3118 145.406 29.5657 143.805 29.5267C142.281 29.5006 140.947 29.2077 139.801 28.6478C138.668 28.0748 137.737 27.3066 137.008 26.3431C136.279 25.3665 135.758 24.2467 135.445 22.9837C135.146 21.7077 135.061 20.347 135.191 18.9017ZM141.656 18.4915L141.617 18.9017C141.578 19.4355 141.552 20.0215 141.539 20.6595C141.539 21.2845 141.611 21.89 141.754 22.4759C141.897 23.0488 142.158 23.5241 142.535 23.9017C142.926 24.2663 143.486 24.4616 144.215 24.4876C144.996 24.5137 145.647 24.3509 146.168 23.9993C146.702 23.6478 147.132 23.179 147.457 22.5931C147.783 22.0071 148.03 21.3756 148.199 20.6985C148.382 20.0215 148.505 19.3704 148.57 18.7454L148.609 18.3353C148.648 17.8144 148.668 17.235 148.668 16.597C148.681 15.9459 148.616 15.3275 148.473 14.7415C148.329 14.1556 148.062 13.6738 147.672 13.2962C147.281 12.9056 146.721 12.6972 145.992 12.6712C145.211 12.6452 144.553 12.8144 144.02 13.179C143.499 13.5436 143.076 14.0254 142.75 14.6243C142.424 15.2103 142.177 15.8483 142.008 16.5384C141.839 17.2155 141.721 17.8665 141.656 18.4915ZM183.434 8.00323L182.555 13.0814H172.809L173.707 8.00323H183.434ZM175.797 8.00323L172.125 29.136H165.699L169.371 8.00323H175.797ZM187.848 8.00323L184.176 29.136H177.73L181.402 8.00323H187.848ZM197.008 12.4173L192.691 37.261H186.266L191.344 8.00323H197.301L197.008 12.4173ZM208.531 18.1985L208.473 18.6087C208.329 19.8847 208.036 21.1738 207.594 22.4759C207.164 23.778 206.572 24.9694 205.816 26.0501C205.074 27.1308 204.15 27.9967 203.043 28.6478C201.936 29.2858 200.634 29.5853 199.137 29.5462C197.822 29.5071 196.747 29.1426 195.914 28.4525C195.081 27.7493 194.43 26.8639 193.961 25.7962C193.505 24.7155 193.186 23.5762 193.004 22.3782C192.835 21.1673 192.763 20.041 192.789 18.9993L192.848 18.4329C193.043 17.2871 193.368 16.0762 193.824 14.8001C194.28 13.5241 194.879 12.3392 195.621 11.2454C196.363 10.1387 197.255 9.24672 198.297 8.56964C199.339 7.87954 200.549 7.55402 201.93 7.59308C203.375 7.63214 204.56 7.97719 205.484 8.62823C206.409 9.26626 207.112 10.1061 207.594 11.1478C208.076 12.1764 208.382 13.3092 208.512 14.5462C208.642 15.7832 208.648 17.0006 208.531 18.1985ZM202.066 18.5892L202.105 18.179C202.145 17.7103 202.177 17.1699 202.203 16.5579C202.229 15.9459 202.19 15.347 202.086 14.761C201.995 14.1751 201.78 13.6868 201.441 13.2962C201.116 12.8926 200.615 12.6777 199.938 12.6517C199.143 12.6126 198.479 12.7363 197.945 13.0228C197.411 13.3092 196.975 13.7064 196.637 14.2142C196.311 14.722 196.057 15.2949 195.875 15.9329C195.693 16.5579 195.562 17.2025 195.484 17.8665L195.309 19.4681C195.217 20.2103 195.198 20.9655 195.25 21.7337C195.302 22.4889 195.523 23.1269 195.914 23.6478C196.318 24.1686 196.995 24.442 197.945 24.4681C198.701 24.4811 199.326 24.2988 199.82 23.9212C200.328 23.5436 200.732 23.0488 201.031 22.4368C201.344 21.8248 201.578 21.1803 201.734 20.5032C201.891 19.8131 202.001 19.1751 202.066 18.5892ZM210.504 18.9017L210.543 18.4915C210.712 16.9681 211.083 15.5423 211.656 14.2142C212.229 12.886 212.991 11.7207 213.941 10.7181C214.905 9.71547 216.038 8.94073 217.34 8.39386C218.642 7.83396 220.1 7.57355 221.715 7.61261C223.264 7.63865 224.605 7.93813 225.738 8.51105C226.871 9.08396 227.802 9.86521 228.531 10.8548C229.26 11.8314 229.775 12.9642 230.074 14.2532C230.387 15.5293 230.478 16.89 230.348 18.3353L230.309 18.765C230.139 20.2754 229.762 21.6881 229.176 23.0032C228.59 24.3183 227.815 25.4707 226.852 26.4603C225.901 27.4498 224.775 28.2181 223.473 28.765C222.171 29.3118 220.719 29.5657 219.117 29.5267C217.594 29.5006 216.259 29.2077 215.113 28.6478C213.98 28.0748 213.049 27.3066 212.32 26.3431C211.591 25.3665 211.07 24.2467 210.758 22.9837C210.458 21.7077 210.374 20.347 210.504 18.9017ZM216.969 18.4915L216.93 18.9017C216.891 19.4355 216.865 20.0215 216.852 20.6595C216.852 21.2845 216.923 21.89 217.066 22.4759C217.21 23.0488 217.47 23.5241 217.848 23.9017C218.238 24.2663 218.798 24.4616 219.527 24.4876C220.309 24.5137 220.96 24.3509 221.48 23.9993C222.014 23.6478 222.444 23.179 222.77 22.5931C223.095 22.0071 223.342 21.3756 223.512 20.6985C223.694 20.0215 223.818 19.3704 223.883 18.7454L223.922 18.3353C223.961 17.8144 223.98 17.235 223.98 16.597C223.993 15.9459 223.928 15.3275 223.785 14.7415C223.642 14.1556 223.375 13.6738 222.984 13.2962C222.594 12.9056 222.034 12.6972 221.305 12.6712C220.523 12.6452 219.866 12.8144 219.332 13.179C218.811 13.5436 218.388 14.0254 218.062 14.6243C217.737 15.2103 217.49 15.8483 217.32 16.5384C217.151 17.2155 217.034 17.8665 216.969 18.4915ZM240.797 24.4681C241.409 24.4811 241.936 24.3704 242.379 24.136C242.822 23.8887 243.173 23.5501 243.434 23.1204C243.707 22.6777 243.883 22.1699 243.961 21.597L249.996 21.5775C249.918 23.2441 249.43 24.6764 248.531 25.8743C247.646 27.0722 246.507 27.9902 245.113 28.6282C243.72 29.2663 242.223 29.5657 240.621 29.5267C239.085 29.5006 237.763 29.2012 236.656 28.6282C235.549 28.0423 234.651 27.261 233.961 26.2845C233.271 25.2949 232.783 24.1621 232.496 22.886C232.223 21.61 232.151 20.2623 232.281 18.8431L232.34 18.3743C232.496 16.89 232.848 15.4902 233.395 14.1751C233.954 12.86 234.697 11.7077 235.621 10.7181C236.546 9.71547 237.639 8.94073 238.902 8.39386C240.178 7.83396 241.611 7.57355 243.199 7.61261C244.892 7.63865 246.331 8.01626 247.516 8.74542C248.714 9.47459 249.618 10.4707 250.23 11.7337C250.842 12.9967 251.129 14.4551 251.09 16.1087L245.055 16.0892C245.081 15.5293 245.029 14.9954 244.898 14.4876C244.781 13.9668 244.547 13.5436 244.195 13.2181C243.844 12.8795 243.336 12.6972 242.672 12.6712C241.904 12.6452 241.279 12.8144 240.797 13.179C240.315 13.5436 239.931 14.0254 239.645 14.6243C239.371 15.2103 239.169 15.8418 239.039 16.5189C238.909 17.1829 238.811 17.8079 238.746 18.3939L238.727 18.8431C238.674 19.3118 238.622 19.8652 238.57 20.5032C238.531 21.1282 238.551 21.7402 238.629 22.3392C238.72 22.9381 238.928 23.4394 239.254 23.8431C239.579 24.2337 240.094 24.442 240.797 24.4681ZM259.371 19.8587L266.891 8.00323H273.473L269.801 29.136H263.375L265.465 17.2415L257.926 29.136H251.324L254.996 8.00323H261.441L259.371 19.8587ZM287.262 21.8118L294.293 8.00323H299.508L288.395 29.136H284.098L280.328 8.00323H285.094L287.262 21.8118ZM283.766 8.00323L280.113 29.136H273.688L277.34 8.00323H283.766ZM292.359 29.136L296.031 8.00323H302.457L298.785 29.136H292.359ZM304.098 18.9017L304.137 18.4915C304.306 16.9681 304.677 15.5423 305.25 14.2142C305.823 12.886 306.585 11.7207 307.535 10.7181C308.499 9.71547 309.632 8.94073 310.934 8.39386C312.236 7.83396 313.694 7.57355 315.309 7.61261C316.858 7.63865 318.199 7.93813 319.332 8.51105C320.465 9.08396 321.396 9.86521 322.125 10.8548C322.854 11.8314 323.368 12.9642 323.668 14.2532C323.98 15.5293 324.072 16.89 323.941 18.3353L323.902 18.765C323.733 20.2754 323.355 21.6881 322.77 23.0032C322.184 24.3183 321.409 25.4707 320.445 26.4603C319.495 27.4498 318.368 28.2181 317.066 28.765C315.764 29.3118 314.312 29.5657 312.711 29.5267C311.188 29.5006 309.853 29.2077 308.707 28.6478C307.574 28.0748 306.643 27.3066 305.914 26.3431C305.185 25.3665 304.664 24.2467 304.352 22.9837C304.052 21.7077 303.967 20.347 304.098 18.9017ZM310.562 18.4915L310.523 18.9017C310.484 19.4355 310.458 20.0215 310.445 20.6595C310.445 21.2845 310.517 21.89 310.66 22.4759C310.803 23.0488 311.064 23.5241 311.441 23.9017C311.832 24.2663 312.392 24.4616 313.121 24.4876C313.902 24.5137 314.553 24.3509 315.074 23.9993C315.608 23.6478 316.038 23.179 316.363 22.5931C316.689 22.0071 316.936 21.3756 317.105 20.6985C317.288 20.0215 317.411 19.3704 317.477 18.7454L317.516 18.3353C317.555 17.8144 317.574 17.235 317.574 16.597C317.587 15.9459 317.522 15.3275 317.379 14.7415C317.236 14.1556 316.969 13.6738 316.578 13.2962C316.188 12.9056 315.628 12.6972 314.898 12.6712C314.117 12.6452 313.46 12.8144 312.926 13.179C312.405 13.5436 311.982 14.0254 311.656 14.6243C311.331 15.2103 311.083 15.8483 310.914 16.5384C310.745 17.2155 310.628 17.8665 310.562 18.4915ZM342.145 8.00323H348.59L347.34 14.6439C347.079 16.1413 346.676 17.7103 346.129 19.3509C345.595 20.9915 344.872 22.5345 343.961 23.9798C343.062 25.4251 341.949 26.623 340.621 27.5735C339.293 28.511 337.724 29.0319 335.914 29.136H335.074L335.504 24.136L335.953 24.0775C336.708 23.4004 337.359 22.7168 337.906 22.0267C338.453 21.3235 338.915 20.5944 339.293 19.8392C339.684 19.084 340.009 18.2832 340.27 17.4368C340.53 16.5775 340.745 15.653 340.914 14.6634L342.145 8.00323ZM343.922 8.00323H358.141L354.469 29.136H348.062L350.855 13.0814H343.043L343.922 8.00323ZM334.332 24.0579H358.434L356.422 35.5423H349.996L351.129 29.136H340.035L338.922 35.5423H332.32L334.332 24.0579ZM360.738 18.9017L360.777 18.4915C360.947 16.9681 361.318 15.5423 361.891 14.2142C362.464 12.886 363.225 11.7207 364.176 10.7181C365.139 9.71547 366.272 8.94073 367.574 8.39386C368.876 7.83396 370.335 7.57355 371.949 7.61261C373.499 7.63865 374.84 7.93813 375.973 8.51105C377.105 9.08396 378.036 9.86521 378.766 10.8548C379.495 11.8314 380.009 12.9642 380.309 14.2532C380.621 15.5293 380.712 16.89 380.582 18.3353L380.543 18.765C380.374 20.2754 379.996 21.6881 379.41 23.0032C378.824 24.3183 378.049 25.4707 377.086 26.4603C376.135 27.4498 375.009 28.2181 373.707 28.765C372.405 29.3118 370.953 29.5657 369.352 29.5267C367.828 29.5006 366.493 29.2077 365.348 28.6478C364.215 28.0748 363.284 27.3066 362.555 26.3431C361.826 25.3665 361.305 24.2467 360.992 22.9837C360.693 21.7077 360.608 20.347 360.738 18.9017ZM367.203 18.4915L367.164 18.9017C367.125 19.4355 367.099 20.0215 367.086 20.6595C367.086 21.2845 367.158 21.89 367.301 22.4759C367.444 23.0488 367.704 23.5241 368.082 23.9017C368.473 24.2663 369.033 24.4616 369.762 24.4876C370.543 24.5137 371.194 24.3509 371.715 23.9993C372.249 23.6478 372.678 23.179 373.004 22.5931C373.329 22.0071 373.577 21.3756 373.746 20.6985C373.928 20.0215 374.052 19.3704 374.117 18.7454L374.156 18.3353C374.195 17.8144 374.215 17.235 374.215 16.597C374.228 15.9459 374.163 15.3275 374.02 14.7415C373.876 14.1556 373.609 13.6738 373.219 13.2962C372.828 12.9056 372.268 12.6972 371.539 12.6712C370.758 12.6452 370.1 12.8144 369.566 13.179C369.046 13.5436 368.622 14.0254 368.297 14.6243C367.971 15.2103 367.724 15.8483 367.555 16.5384C367.385 17.2155 367.268 17.8665 367.203 18.4915ZM403.395 22.1634L412.418 0.698547H420.094L406.324 29.136H401.344L403.395 22.1634ZM401.5 0.698547L403.883 22.7689L403.805 29.136H399.039L394.234 0.698547H401.5ZM430.973 17.0462H423.57L424.332 12.554L429.762 12.5735C430.556 12.5735 431.318 12.4824 432.047 12.3001C432.789 12.1048 433.414 11.7663 433.922 11.2845C434.443 10.8027 434.775 10.1191 434.918 9.2337C435.035 8.42641 434.97 7.7949 434.723 7.33917C434.475 6.87042 434.078 6.53839 433.531 6.34308C432.997 6.13475 432.359 6.02407 431.617 6.01105L428.043 5.99152L424.02 29.136H417.34L422.262 0.698547L431.832 0.718079C433.069 0.731099 434.293 0.867818 435.504 1.12823C436.715 1.38865 437.802 1.81183 438.766 2.39777C439.729 2.97068 440.484 3.75193 441.031 4.74152C441.578 5.71808 441.806 6.94204 441.715 8.41339C441.624 10.015 441.174 11.317 440.367 12.3196C439.573 13.3092 438.544 14.0449 437.281 14.5267C436.018 14.9954 434.651 15.2493 433.18 15.2884L430.973 17.0462ZM428.707 29.136H419.723L422.926 23.8626L428.922 23.8821C429.664 23.8691 430.361 23.7454 431.012 23.511C431.676 23.2767 432.229 22.9121 432.672 22.4173C433.128 21.9095 433.421 21.265 433.551 20.4837C433.668 19.8196 433.655 19.2402 433.512 18.7454C433.382 18.2376 433.108 17.8405 432.691 17.554C432.288 17.2676 431.741 17.1048 431.051 17.0657L425.094 17.0462L425.914 12.554L432.398 12.5735L433.57 14.3509C434.885 14.3639 436.051 14.5983 437.066 15.054C438.082 15.5097 438.863 16.1998 439.41 17.1243C439.97 18.0358 440.204 19.1816 440.113 20.5618C439.983 22.6842 439.371 24.3769 438.277 25.64C437.184 26.89 435.79 27.7884 434.098 28.3353C432.405 28.8821 430.608 29.1491 428.707 29.136ZM462.32 23.8626L461.402 29.136H446.656L447.574 23.8626H462.32ZM454 0.698547L449.059 29.136H442.379L447.301 0.698547H454ZM462.477 11.9876L461.598 17.0853H448.746L449.645 11.9876H462.477ZM466.383 0.698547L465.465 5.99152H450.66L451.598 0.698547H466.383ZM482.809 0.698547L477.887 29.136H471.188L476.129 0.698547H482.809ZM491.109 0.698547L490.191 5.99152H467.086L468.023 0.698547H491.109ZM500.816 0.698547L496.637 20.1321H491.402L493.961 0.698547H500.816ZM489.371 26.304C489.345 25.2884 489.684 24.4616 490.387 23.8235C491.103 23.1855 491.949 22.8665 492.926 22.8665C493.863 22.8535 494.677 23.1465 495.367 23.7454C496.07 24.3314 496.435 25.1061 496.461 26.0696C496.474 27.0722 496.129 27.8991 495.426 28.5501C494.723 29.1881 493.883 29.5071 492.906 29.5071C491.969 29.5202 491.148 29.2337 490.445 28.6478C489.755 28.0618 489.397 27.2806 489.371 26.304Z" fill="white"/>
</svg>
