<svg width="158" height="65" viewBox="0 0 158 65" fill="none" xmlns="http://www.w3.org/2000/svg">
<path d="M36.8719 3.98113C36.6579 1.64176 34.9937 0.189087 32.5259 0.189087H32.5212C32.3167 0.189087 32.0457 0.193803 31.7366 0.236252C29.6872 0.500374 28.1419 1.89173 27.2622 4.26412C26.6393 5.9479 26.5632 7.57508 26.5537 7.75902L26.5157 8.82023C26.2209 9.30603 25.9927 9.82956 25.8357 10.3767C25.403 11.8907 24.8753 14.3432 24.7897 17.4608L24.7659 18.2768C24.3427 18.8805 23.9718 19.5596 23.658 20.3048C23.2681 21.234 22.959 22.1773 22.6547 23.3988L22.4407 19.0125C22.4075 17.3004 21.1379 6.57047 20.1108 2.91521C19.6876 1.41537 18.2945 0.486225 16.4686 0.486225C15.5937 0.486225 14.6427 0.684316 13.8534 1.03334C9.77365 2.83031 10.1112 8.08446 10.9576 10.9096L11.2477 11.8812C11.2144 12.1453 11.1954 12.4142 11.2049 12.683C11.2429 14.447 11.6423 16.2723 12.5125 19.6964L12.774 20.7246C12.579 21.2764 12.4649 21.8518 12.4412 22.4367C12.3793 23.8658 12.4174 25.3373 12.5505 26.8419C12.3936 26.8041 12.2462 26.7711 12.0988 26.7475C12.0322 26.7381 11.9657 26.7287 11.8943 26.7192C11.6566 26.6862 11.4616 26.6674 11.2714 26.6626H11.2477H11.2334H11.2191H11.1811H11.1478H11.1336C11.0052 26.6626 10.8958 26.6721 10.8102 26.6768H10.8007H10.7864C10.7151 26.6768 10.5725 26.6815 10.4013 26.7051C10.2587 26.724 10.1493 26.7523 10.0685 26.7711H10.0637C9.93056 26.7994 9.71659 26.8419 9.47884 26.9268C9.12698 27.0541 8.82742 27.205 8.55639 27.3843L8.51835 27.4078L8.48982 27.4267L8.46129 27.4456L8.42325 27.4739C7.49605 28.1861 6.57835 28.9973 6.15516 30.1104C5.8556 30.898 5.79379 31.7894 5.96972 32.8507C5.88889 32.8459 5.81281 32.8459 5.73197 32.8459C4.96643 32.8459 4.20089 33.0487 3.45913 33.4496C2.71736 33.8505 2.27991 34.4212 1.89476 34.9259L1.76162 35.1004C0.311373 36.9776 1.07691 39.6235 1.78064 41.4535L1.79015 41.4865C1.79966 41.5148 1.80917 41.5337 1.81393 41.5525C1.85672 41.6893 1.90902 41.8261 1.96133 41.9629L1.88049 43.4674C1.80917 44.755 2.3227 46.269 2.9979 48.1132C3.17383 48.5895 3.36878 49.1272 3.42584 49.3536C4.21991 52.6174 5.57031 55.1879 7.43899 57.0037L7.49129 64.8378H31.3752L30.2055 56.4472L30.1627 56.1453C31.7413 53.9144 32.9111 50.7591 33.5435 46.9859C34.523 41.1705 34.076 34.5816 32.35 29.2992C32.6448 27.639 33.1203 25.309 33.629 22.8423L33.6481 22.7527C33.9143 21.4557 34.1901 20.1162 34.4374 18.871C34.5467 18.3145 34.6561 17.7579 34.7655 17.2014C34.8701 16.659 34.9747 16.1166 35.0745 15.5742C35.1744 15.0318 35.2743 14.4941 35.3693 13.9612C35.5405 13.0273 35.7165 12.018 35.9114 10.8766C36.0826 9.89087 36.2395 8.95701 36.3821 8.09861L36.4107 7.92882C36.5438 7.1506 36.6627 6.43841 36.7673 5.82055C36.8053 5.59888 36.8339 5.39607 36.8529 5.19798C36.8814 4.93386 36.8909 4.67917 36.8862 4.43391C36.8909 4.27355 36.8862 4.12262 36.8719 3.98113ZM35.8876 5.0895C35.8686 5.26401 35.8448 5.44324 35.8116 5.64604C35.6974 6.31107 35.5643 7.07985 35.4216 7.92882C35.279 8.7825 35.1173 9.71636 34.9509 10.7021C34.7797 11.6878 34.599 12.7208 34.4089 13.782C34.3138 14.3102 34.2139 14.8479 34.114 15.3856C34.0142 15.9232 33.9096 16.4656 33.805 17.008C33.6956 17.5646 33.5863 18.1211 33.4769 18.6729C33.2249 19.9417 32.9443 21.3 32.6686 22.6395C32.136 25.2288 31.632 27.6814 31.3419 29.3605C33.087 34.5486 33.5482 41.0432 32.5782 46.8161C31.9268 50.6695 30.7333 53.7776 29.1404 55.8812L29.2355 56.5698L30.2531 63.8615H28.9407C28.9407 63.8615 27.8851 56.7584 27.8851 56.7632L27.8804 56.7679C27.0102 57.3291 26.102 57.6829 25.2889 57.914C25.1748 57.947 25.0607 57.9753 24.9466 58.0036C25.0369 57.9706 25.132 57.9328 25.2224 57.8904C28.3463 56.499 30.5574 51.3722 31.3372 45.2833C31.399 44.788 31.4561 44.2881 31.4988 43.7834C31.5179 43.5618 31.5369 43.3401 31.5511 43.1184C31.5892 42.5949 31.613 42.0714 31.632 41.5431C31.632 41.5337 31.632 41.5195 31.632 41.5101C31.7509 37.4162 31.2326 33.1572 29.944 29.4784C30.1817 28.054 30.6002 25.9552 31.0614 23.7007C31.0852 23.5734 31.1137 23.4507 31.1375 23.3234C31.2421 22.8187 31.3467 22.3093 31.4513 21.8C31.5274 21.4179 31.6082 21.0359 31.6843 20.6539C31.8412 19.8945 31.9934 19.1399 32.136 18.4135C32.2454 17.8617 32.3547 17.3052 32.4641 16.7533C32.4736 16.7109 32.4784 16.6684 32.4879 16.626C32.583 16.1308 32.6781 15.6355 32.7684 15.1403C32.8683 14.6026 32.9681 14.0697 33.0632 13.5414C33.1108 13.2773 33.1583 13.0132 33.2059 12.7538C33.2534 12.4944 33.2962 12.235 33.3438 11.9803C33.3913 11.702 33.4389 11.4237 33.4912 11.1502C33.5292 10.9238 33.5672 10.6974 33.61 10.4757C33.6861 10.0276 33.7622 9.58902 33.8335 9.16453C33.9239 8.62685 34.0142 8.11276 34.095 7.62225C34.2329 6.8063 34.3565 6.06109 34.4707 5.41494C34.4754 5.38192 34.4802 5.33947 34.4897 5.30646C34.5087 5.19798 34.523 5.08007 34.5372 4.95744C34.5467 4.87726 34.5515 4.79236 34.5563 4.70747C34.561 4.62257 34.561 4.53767 34.561 4.45278C34.561 4.42448 34.5563 4.39618 34.5563 4.36316C34.5515 4.30657 34.5515 4.24997 34.5467 4.19337C34.4802 3.44817 34.1331 2.73598 33.0822 2.55676C33.0537 2.55204 33.0347 2.55204 33.0109 2.54732C32.8635 2.52374 32.7018 2.51431 32.5259 2.51431H32.5212C32.3737 2.51431 32.2121 2.51902 32.0409 2.54261C30.8189 2.69825 30.0724 3.65098 29.6159 4.70275C29.5684 4.81595 29.5208 4.92442 29.478 5.03762C29.4209 5.19326 29.3639 5.35362 29.3163 5.50927C29.2688 5.66491 29.226 5.82055 29.188 5.97148C29.1309 6.19787 29.0881 6.41483 29.0501 6.62235C29.0358 6.70253 29.0215 6.77328 29.012 6.84874C28.993 6.95722 28.9787 7.06099 28.9692 7.15532C28.955 7.27794 28.9407 7.39114 28.9312 7.48547C28.9217 7.56093 28.9169 7.63168 28.9122 7.68356C28.9122 7.68828 28.9122 7.69299 28.9122 7.69771C28.9074 7.74959 28.9074 7.79204 28.9027 7.81562C28.9027 7.82977 28.9027 7.84392 28.9027 7.84864C28.9692 7.82505 29.0358 7.80619 29.1071 7.78732C29.1975 7.76374 29.2878 7.74016 29.3782 7.72129C29.5398 7.68828 29.711 7.65998 29.8774 7.6364C29.9392 7.62696 29.9963 7.61753 30.0534 7.61281C30.0724 7.6081 30.0914 7.6081 30.1152 7.6081C30.3814 7.5798 30.643 7.56093 30.8902 7.56093C30.914 7.56093 30.9425 7.56093 30.9663 7.56093C30.9901 7.56093 31.0186 7.56093 31.0424 7.56093C31.1327 7.56565 31.2231 7.56565 31.3086 7.57036C31.399 7.57508 31.4893 7.58451 31.5702 7.59395V8.06088C31.5654 8.06088 31.5607 8.06088 31.5511 8.0656H31.5464C29.906 8.28255 28.5413 9.42866 28.0943 11.0087C27.9945 11.3577 27.8899 11.7586 27.79 12.2114C27.7662 12.3246 27.7377 12.4425 27.7139 12.5604C27.5142 13.5131 27.3288 14.6592 27.2194 15.9751C27.1814 16.4703 27.1529 16.9844 27.1386 17.5221C27.3906 17.3665 27.7187 17.2486 28.061 17.1542C28.0706 17.1495 28.0848 17.1495 28.0943 17.1448C28.0991 17.1448 28.1086 17.1401 28.1133 17.1401C28.2417 17.1071 28.3701 17.0693 28.5033 17.041C28.6887 17.0033 28.8694 16.975 29.0548 16.9514C29.2831 16.9231 29.5018 16.9043 29.7205 16.8901C29.7728 16.8854 29.8251 16.8807 29.8774 16.876C29.9678 16.8712 30.0676 16.8618 30.1532 16.8618V17.4231C30.1389 17.4231 30.1104 17.4231 30.0629 17.4278C29.9963 17.4325 29.8917 17.4467 29.7585 17.475C29.6254 17.5033 29.4637 17.541 29.2831 17.6023C28.8884 17.7296 28.5175 17.9042 28.1752 18.1164C27.8518 18.3192 27.5475 18.555 27.2765 18.8239L27.2717 18.8286C26.8343 19.2625 26.4729 19.7719 26.2066 20.3331C26.1591 20.4275 26.1163 20.5218 26.0735 20.6161C26.0545 20.6633 26.0307 20.7105 26.0117 20.7529C25.9499 20.8897 25.8928 21.0265 25.831 21.168C25.7359 21.3991 25.6455 21.6255 25.56 21.866C25.5077 22.0122 25.4554 22.1584 25.4078 22.3046C25.3793 22.3895 25.3507 22.4791 25.3222 22.5687C25.3032 22.6348 25.2794 22.7008 25.2604 22.7716C25.2176 22.9083 25.1796 23.0498 25.1368 23.1913C25.1178 23.2621 25.0987 23.3375 25.075 23.4083C25.0369 23.5545 24.9941 23.7101 24.9561 23.8658C24.9228 24.0073 24.8848 24.1535 24.8515 24.3044C24.842 24.3374 24.8372 24.3752 24.8277 24.4082C24.7754 24.6251 24.7278 24.8468 24.6755 25.0826C24.647 25.2147 24.6185 25.3467 24.59 25.4835C24.5567 25.658 24.5186 25.8373 24.4806 26.0212C24.4616 26.125 24.4378 26.2287 24.4188 26.3372C24.3142 26.8749 24.2096 27.455 24.0954 28.1012C23.6865 28.4077 23.2871 28.752 22.902 29.1105C22.8972 29.1152 22.8925 29.1199 22.8829 29.1294C22.6927 29.3086 22.5073 29.4878 22.3266 29.667C21.5183 30.4736 20.8193 31.2848 20.3723 31.8272C20.0395 32.2328 19.8398 32.4922 19.835 32.4922L19.7162 32.4545L19.293 32.3224C19.4784 32.0064 19.6639 31.6904 19.8398 31.398C20.2915 30.6292 20.6481 30.0161 20.6481 30.0161L20.1013 19.0833C20.1013 19.0078 20.0966 18.8993 20.0871 18.7531C20.0823 18.6824 20.0775 18.6022 20.068 18.5126C20.0585 18.3805 20.0443 18.2296 20.03 18.0598C19.8874 16.4986 19.5497 13.532 19.1313 10.5983C19.1075 10.4191 19.079 10.2399 19.0552 10.0607C19.0362 9.9286 19.0172 9.79654 18.9982 9.66448C18.9697 9.48525 18.9459 9.30603 18.9173 9.1268C18.8983 8.99474 18.8793 8.86268 18.8555 8.73533C18.827 8.56554 18.8032 8.39575 18.7747 8.22596C18.7699 8.19294 18.7652 8.16464 18.7604 8.13163C18.7319 7.94768 18.7034 7.76846 18.6701 7.58923C18.6083 7.20248 18.5417 6.82516 18.4751 6.46199C18.4466 6.2922 18.4133 6.13184 18.3848 5.97148C18.3515 5.78282 18.3135 5.59888 18.2802 5.42437C18.2659 5.34419 18.2469 5.25929 18.2326 5.17911C18.2136 5.08478 18.1946 4.99517 18.1756 4.90556C18.1471 4.76406 18.1185 4.62729 18.0852 4.49994C18.052 4.35845 18.0234 4.21695 17.9901 4.08961C17.9569 3.95755 17.9283 3.83492 17.895 3.71701C17.8808 3.65569 17.8618 3.5991 17.8475 3.5425C17.8285 3.47647 17.8047 3.41044 17.7714 3.35384C17.643 3.12745 17.4195 2.98124 17.1438 2.89634C16.9393 2.83503 16.7016 2.80673 16.4591 2.80673C16.0929 2.80673 15.703 2.86804 15.3559 2.95766C15.1467 3.01425 14.9565 3.08028 14.7948 3.15103C13.3541 3.78776 12.8643 5.21685 12.774 6.62707C12.7597 6.82988 12.755 7.02797 12.755 7.23078C12.7597 7.62696 12.7835 8.01371 12.8263 8.36745C12.8453 8.53253 12.8691 8.68817 12.8881 8.8391C12.8929 8.86268 12.8929 8.88626 12.8976 8.90984C12.9452 9.19755 12.9975 9.45224 13.0403 9.66448C13.0688 9.79182 13.0926 9.9003 13.1164 9.98992C13.1354 10.0701 13.1544 10.1314 13.1639 10.1739C13.1734 10.2163 13.1829 10.2399 13.1829 10.2399C13.1877 10.2352 13.1924 10.2352 13.1972 10.2305C13.3541 10.122 13.53 10.0135 13.7202 9.91445C14.3764 9.56543 15.2228 9.28716 16.2118 9.28716C16.2308 9.28716 16.2498 9.28716 16.2736 9.28716C16.2831 9.28716 16.2926 9.28716 16.3021 9.28716L16.2784 9.56543L16.2546 9.8437C15.8219 9.8437 15.413 9.94747 15.0516 10.122C14.9803 10.155 14.9137 10.1927 14.8471 10.2352C14.7235 10.3106 14.6046 10.3908 14.4953 10.4804C14.1577 10.7634 13.8914 11.1266 13.725 11.5416C13.5918 11.8718 13.5205 12.2397 13.53 12.6217C13.5491 13.3716 13.6441 14.1546 13.8391 15.1733C13.939 15.6827 14.0626 16.2487 14.2147 16.8948C14.2623 17.0882 14.3098 17.291 14.3621 17.5033C14.481 17.9938 14.6142 18.5267 14.7663 19.1163C15.4748 18.8333 16.3592 18.6494 16.9869 18.5456C17.3815 18.4796 17.6763 18.4465 17.7667 18.4371L17.895 19.1069C17.8713 19.1116 17.8475 19.1116 17.8285 19.1163C17.8237 19.1163 17.819 19.1163 17.8142 19.1163C17.7334 19.1304 17.6573 19.1446 17.5812 19.1635C17.5574 19.1682 17.5337 19.1729 17.5146 19.1776C16.9108 19.3285 16.3735 19.6257 15.936 20.0266C15.9265 20.036 15.9122 20.0454 15.9027 20.0549C15.8647 20.0926 15.8267 20.1303 15.7886 20.1728C15.7553 20.2105 15.7173 20.2435 15.684 20.2813C15.6745 20.2954 15.6602 20.3096 15.6507 20.3237C15.1324 20.918 14.8091 21.682 14.7711 22.5121C14.7711 22.5169 14.7711 22.5263 14.7711 22.531V22.5357C14.7663 22.6536 14.7663 22.7716 14.7616 22.8847C14.7568 22.9791 14.7568 23.0734 14.752 23.1677C14.7473 23.2857 14.7473 23.4036 14.7473 23.5215C14.7473 23.6158 14.7425 23.7148 14.7425 23.8092C14.7425 23.9224 14.7473 24.0309 14.7473 24.144C14.7473 24.2431 14.7473 24.3421 14.752 24.4365C14.7568 24.5449 14.7568 24.6487 14.7616 24.7572C14.7663 24.8562 14.7663 24.9553 14.7711 25.0496C14.7758 25.1534 14.7806 25.2524 14.7853 25.3562C14.7901 25.4552 14.7948 25.5543 14.7996 25.6486C14.8043 25.7524 14.8139 25.8467 14.8186 25.9505C14.8234 26.0448 14.8329 26.1391 14.8376 26.2334C14.8471 26.3325 14.8567 26.4268 14.8614 26.5259C14.8709 26.6155 14.8757 26.7098 14.8852 26.7994C14.8947 26.8985 14.9042 26.9975 14.9137 27.0966C14.9232 27.1815 14.928 27.2664 14.9375 27.3465C14.947 27.4409 14.9565 27.5305 14.9708 27.6201C14.9803 27.705 14.9898 27.7899 14.9993 27.8748C15.0088 27.9597 15.0231 28.0399 15.0326 28.1247C15.0421 28.2096 15.0564 28.2945 15.0659 28.3794C15.0754 28.4596 15.0896 28.5398 15.0992 28.62C15.1087 28.7002 15.1229 28.7851 15.1324 28.8652C15.1467 28.9407 15.1562 29.0162 15.1705 29.0916C15.1847 29.1671 15.1943 29.2473 15.2085 29.3227C15.2275 29.4265 15.2418 29.5303 15.2608 29.6293C15.2656 29.6718 15.2751 29.7142 15.2798 29.7519C15.3559 30.1717 15.4272 30.549 15.4986 30.8792L15.3512 30.7801L15.1182 30.6198C14.9042 30.4736 14.6997 30.3556 14.4953 30.2283C14.4763 30.2189 14.4572 30.2047 14.4382 30.1953C14.3669 30.1528 14.3003 30.1057 14.229 30.0632C14.2147 30.0538 14.2005 30.0444 14.1862 30.0349C14.1815 30.0349 14.1815 30.0302 14.1815 30.0302C14.1292 30.0019 14.0816 29.9736 14.0293 29.9453C13.9057 29.8746 13.7773 29.8085 13.6584 29.7425C13.5348 29.6765 13.4159 29.6199 13.297 29.5633C13.2638 29.5444 13.2305 29.535 13.1924 29.5161C12.9357 29.3982 12.6884 29.2992 12.4507 29.219C12.4364 29.2143 12.4269 29.2143 12.4126 29.2095C12.3841 29.2001 12.3508 29.1907 12.3223 29.1812C12.0988 29.1105 11.8848 29.0539 11.6804 29.0209C11.6661 29.0162 11.6471 29.0162 11.6328 29.0162C11.6186 29.0162 11.609 29.0162 11.5948 29.0114C11.4474 28.9879 11.3047 28.9737 11.1716 28.969C11.1668 28.969 11.1621 28.969 11.1526 28.969H11.124H11.1193H11.105C11.0717 28.969 11.0385 28.969 11.0052 28.9737C10.9719 28.9784 10.9386 28.9784 10.9053 28.9831C10.834 28.9879 10.7627 28.9879 10.6961 28.9926C10.6438 29.002 10.5963 29.0162 10.5439 29.0256C10.4441 29.0445 10.3442 29.068 10.2491 29.1011C10.1778 29.1294 10.1065 29.1577 10.0352 29.1907C9.96385 29.2237 9.89728 29.2614 9.83546 29.3039C9.70233 29.4076 9.55492 29.5208 9.40752 29.6435C9.29816 29.7378 9.18404 29.8321 9.07468 29.9359C8.75134 30.2424 8.45654 30.5773 8.32816 30.9169C8.16649 31.3414 8.15698 31.8885 8.2711 32.5347C8.29012 32.6431 8.31389 32.7516 8.33767 32.8648C8.38997 33.0912 8.45654 33.327 8.53262 33.577C8.57066 33.6996 8.61345 33.827 8.65625 33.9543C8.74659 34.2137 8.84644 34.4778 8.9558 34.7561C9.12223 35.1712 9.31242 35.6051 9.52164 36.0531C9.59296 36.2041 9.66429 36.355 9.74037 36.5106C9.82595 36.4918 9.90679 36.4729 9.98762 36.454C10.2063 36.4069 10.4203 36.3597 10.6343 36.3173C10.6866 36.3078 10.7437 36.2984 10.796 36.289C10.8815 36.2748 10.9624 36.2607 11.048 36.2465C11.2382 36.2135 11.4284 36.1852 11.6186 36.1616C11.6376 36.1616 11.6518 36.1569 11.6709 36.1569C11.9466 36.1239 12.2272 36.105 12.5077 36.0909C12.5315 36.0909 12.56 36.0909 12.5838 36.0909C12.6361 36.0909 12.6837 36.0862 12.736 36.0862C12.7835 36.0862 12.8263 36.0862 12.8739 36.0862C12.8976 36.0862 12.9214 36.0862 12.9452 36.0862C13.1021 36.0862 13.2638 36.0909 13.4254 36.0956C13.4397 36.0956 13.6584 36.105 13.6727 36.105C13.9532 36.1239 14.2433 36.1522 14.5428 36.1946C14.5666 36.1993 14.5904 36.1993 14.6142 36.2041C14.6379 36.2088 14.6617 36.2088 14.6855 36.2135C15.0326 36.2654 15.3892 36.3314 15.7744 36.4163C15.7744 36.4163 15.5414 34.7231 14.5904 33.228C14.5523 33.1667 14.5143 33.1101 14.4763 33.0487L14.5856 33.0252L15.1087 32.9167C15.2038 33.011 15.2989 33.1053 15.3892 33.2044C15.5414 33.3695 15.6888 33.544 15.8267 33.7232C15.898 33.8175 15.9741 33.9119 16.0406 34.0109C16.0929 34.0817 16.1405 34.1571 16.1928 34.2279C16.2308 34.2845 16.2689 34.3411 16.3069 34.4024C17.1057 35.6334 17.5099 36.8078 17.5099 36.8078C17.819 36.8266 18.1375 36.8691 18.4561 36.921C19.0647 37.0247 19.6876 37.1804 20.3153 37.3785C20.5816 37.4634 20.8526 37.553 21.1189 37.652L28.5508 40.7224L28.5175 41.1281L28.489 41.4724L23.3632 39.6943L20.7052 38.7698C20.6862 38.7604 20.6624 38.751 20.6386 38.7462C20.3105 38.6047 19.9682 38.4821 19.6258 38.3831C19.4499 38.3312 19.2692 38.284 19.0885 38.2369C19.0838 38.2369 19.0838 38.2369 19.079 38.2369C18.9459 38.2038 18.7699 38.1708 18.556 38.1378C18.5037 38.1284 18.4466 38.1237 18.3896 38.1142C18.323 38.1048 18.2564 38.0954 18.1851 38.0859C18.0805 38.0718 17.9664 38.0576 17.8475 38.0435C17.7714 38.0341 17.6953 38.0246 17.6145 38.0152C17.5432 38.0058 17.4719 37.9963 17.4005 37.9869C17.2579 37.968 17.1057 37.9492 16.9583 37.9303C16.8062 37.9114 16.654 37.8878 16.4971 37.8643C16.3402 37.8407 16.188 37.8171 16.0311 37.7935C15.4368 37.6945 14.8281 37.5718 14.2147 37.4728C13.7583 37.3973 13.297 37.336 12.8453 37.3124C12.6932 37.303 12.541 37.2983 12.3936 37.2983C12.2652 37.2983 12.1368 37.303 12.0085 37.3077C11.2334 37.3549 10.5677 37.5105 10.0162 37.7511C9.86399 37.8171 9.7261 37.8926 9.59296 37.9727C9.47885 38.0388 9.36948 38.1142 9.26963 38.1897C8.55164 38.7368 8.18551 39.4962 8.23781 40.3498C8.25683 40.7036 8.35669 41.0667 8.5136 41.411L11.7564 41.6186C11.7612 41.5242 11.7707 41.4346 11.785 41.3403C11.7945 41.246 11.8088 41.1564 11.823 41.062C11.8896 40.6564 11.9894 40.2602 12.1416 39.8782C12.2129 39.6895 12.3033 39.5103 12.4031 39.3358C12.4364 39.2792 12.4649 39.2179 12.4982 39.1613H13.2495C12.9594 39.7414 12.8215 40.3215 12.7597 40.8451C12.736 41.0526 12.7265 41.2507 12.7265 41.4394C12.7217 42.2789 12.9071 42.859 12.9071 42.859L12.5695 42.8354L12.2938 42.8166L9.3885 42.6373C9.46458 42.7175 9.55017 42.793 9.631 42.8637C10.0162 43.1986 10.4584 43.4721 10.9291 43.6419C11.067 43.6938 11.2049 43.7363 11.3428 43.7693C12.2082 43.9674 13.1591 44.1702 13.8011 44.2598C14.0245 44.2928 14.248 44.3022 14.4763 44.3022C14.7235 44.3022 14.9708 44.2881 15.2133 44.2551C15.2941 44.2457 15.3749 44.2362 15.4558 44.2221C15.4082 44.1608 15.3654 44.0947 15.3274 44.024C15.2513 43.8919 15.1895 43.7551 15.1419 43.6136C15.0944 43.4769 15.0611 43.3354 15.0373 43.1986C15.0136 43.0618 14.9993 42.9298 14.9945 42.8024C14.9898 42.7411 14.9898 42.6751 14.9898 42.6185C14.9945 42.1374 15.0896 41.7837 15.0896 41.7837C15.2846 42.2977 15.5604 42.7458 15.8552 43.1373C15.8599 43.142 15.8599 43.1467 15.8647 43.1514C16.3212 43.7504 16.9013 44.2456 17.5384 44.656L22.8877 48.0849L22.6642 48.349L21.7037 47.9339L20.5911 47.4481C20.2725 47.3114 19.9397 47.2453 19.6163 47.2453C19.0838 47.2453 18.5702 47.4198 18.1518 47.7358C18.1423 47.7406 18.1328 47.75 18.1233 47.7547C18.0757 47.7877 18.0329 47.8255 17.9901 47.8632C17.9569 47.8962 17.9236 47.9245 17.8903 47.9575C17.876 47.9717 17.8665 47.9858 17.8522 47.9952C17.6811 48.1745 17.5337 48.3773 17.4243 48.6131C17.4195 48.6225 17.4148 48.632 17.41 48.6414C17.3863 48.6933 17.3625 48.7452 17.3435 48.797C17.3245 48.8395 17.3102 48.8867 17.2959 48.9338C17.2912 48.9574 17.2817 48.9763 17.2721 48.9999C17.2721 49.0093 17.2674 49.0187 17.2674 49.0234C17.1152 49.5894 17.0154 50.1743 16.9726 50.7544C16.9631 50.9006 16.9583 51.0468 16.9536 51.1883C16.9488 51.3345 16.9536 51.476 16.9583 51.6222C16.9678 51.9099 16.9964 52.1976 17.0392 52.4806C17.1485 53.1881 17.372 53.872 17.7096 54.4851C17.7762 54.6077 17.8475 54.7304 17.9236 54.8436C18.0757 55.0794 18.2469 55.3011 18.4371 55.5039C19.1884 56.3387 20.2154 56.9094 21.3328 57.2631L21.8844 57.4376L20.8241 60.6118C20.8193 60.6307 20.8003 60.6401 20.786 60.6401C20.767 60.6401 20.748 60.626 20.7432 60.6024L20.4865 58.4422C19.4927 58.0791 18.5322 57.5367 17.7476 56.7867C17.7429 56.782 17.7334 56.7773 17.7286 56.7679C17.6145 56.6594 17.5051 56.5462 17.4005 56.4283C16.7206 55.6878 16.2356 54.7964 15.936 53.8578C15.8124 53.4711 15.7173 53.0796 15.6555 52.6834C15.4463 51.3251 15.5651 49.9479 15.9122 48.6508C15.9455 48.5329 15.9788 48.4103 16.0169 48.2924C16.0882 48.0566 16.169 47.8207 16.2594 47.5896C16.3354 47.3915 16.4163 47.1982 16.5019 47.0048C16.5399 46.9152 16.5827 46.8256 16.6255 46.7407C16.7016 46.5803 16.7824 46.4199 16.868 46.2643C16.887 46.2266 16.9108 46.1936 16.9298 46.1558C16.9773 46.0756 17.0201 45.9907 17.0724 45.9106L17.0059 45.8823L16.4448 45.4106C16.2926 45.4766 16.0264 45.5521 15.7553 45.604C15.703 45.6134 15.646 45.6229 15.5937 45.6276C15.4843 45.6417 15.3797 45.6512 15.2846 45.6512C15.1229 45.6512 14.9517 45.6464 14.7758 45.6323C14.6902 45.6276 14.6046 45.6181 14.5191 45.6087C14.3574 45.5898 14.1957 45.571 14.0436 45.5474C13.8534 45.5191 13.6727 45.4861 13.5063 45.4531C13.4444 45.4389 13.3874 45.4295 13.3303 45.4153C13.3541 45.5946 13.3636 45.7691 13.3636 45.9341C13.3636 46.019 13.3589 46.0992 13.3589 46.1794C13.297 47.1557 12.8548 47.8679 12.1844 48.2924C12.1416 48.3207 12.0988 48.3443 12.056 48.3726C11.9324 48.4433 11.804 48.4999 11.6661 48.5471C11.4664 48.6225 11.2524 48.6791 11.0289 48.7169C10.8435 48.7452 10.6486 48.7593 10.4488 48.7593H10.4393C10.0399 48.7593 9.62149 48.7121 9.19355 48.5848C5.8033 47.5708 4.21991 43.5901 4.21991 43.5901C4.20565 43.8306 4.23893 44.1136 4.29599 44.4296C4.31976 44.5569 4.34829 44.689 4.38158 44.8258C4.41011 44.9437 4.44339 45.0616 4.47668 45.1842C4.66687 45.8681 4.9379 46.6039 5.17565 47.2642C5.40388 47.8915 5.60835 48.448 5.69869 48.8112C6.52129 52.1882 7.88119 54.4474 9.26487 55.8057C9.55492 56.0887 9.85924 56.3245 10.1493 56.5604C12.1844 58.2347 15.3321 58.3526 15.3321 58.3526L10.1921 58.3998L9.89252 63.8615H8.46129L8.40899 56.5792C6.52129 54.886 5.16614 52.3863 4.37207 49.1225C4.3055 48.8395 4.1153 48.3254 3.9156 47.7783C3.27844 46.0379 2.79819 44.6183 2.85525 43.5146L2.95035 41.8025C2.87427 41.6139 2.80295 41.4252 2.74113 41.2365C2.73162 41.2082 2.7126 41.1658 2.69358 41.1092C2.07545 39.5009 1.38598 37.1851 2.54143 35.6947L2.67456 35.5202C3.03118 35.0532 3.36878 34.6099 3.92986 34.308C4.52423 33.9873 5.13285 33.8222 5.73197 33.8222C6.30256 33.8222 6.84938 33.9685 7.32962 34.2514C6.78281 32.6007 6.71149 31.4074 7.0681 30.4641C7.4057 29.5774 8.20453 28.8794 9.01762 28.2568L9.05566 28.2285L9.0937 28.2002C9.29816 28.0634 9.52639 27.9502 9.80218 27.8512C9.98287 27.7852 10.154 27.7521 10.2682 27.7286L10.2919 27.7239C10.3633 27.705 10.4393 27.6908 10.5297 27.6767C10.6486 27.6625 10.7484 27.6578 10.815 27.6578H10.853L10.8911 27.6531C10.9719 27.6484 11.048 27.6437 11.1288 27.6437H11.1526H11.1763H11.2144H11.2382C11.3998 27.6484 11.571 27.6625 11.7802 27.6955C11.8278 27.7003 11.8801 27.705 11.9324 27.7144C12.2224 27.7616 12.5363 27.8418 12.8691 27.9502L12.8929 27.9597L12.9024 27.9644C13.1449 28.0446 13.4016 28.1436 13.6869 28.271C13.4682 26.5825 13.3303 24.6015 13.4159 22.4886C13.4397 21.8943 13.5728 21.3236 13.7963 20.7954L13.4587 19.4653C12.6028 16.1166 12.2177 14.3385 12.1796 12.6689C12.1749 12.3812 12.1987 12.0982 12.2462 11.8199L11.8896 10.6361C11.1383 8.11276 10.7864 3.44345 14.248 1.91532C14.9042 1.62761 15.7316 1.4531 16.4638 1.4531C17.8522 1.4531 18.865 2.09454 19.1646 3.17461C20.1917 6.82988 21.4375 17.5221 21.4612 19.0455L21.9082 28.1861C22.222 27.8936 22.5311 27.6201 22.8306 27.3748C23.4488 23.9695 23.8815 22.2999 24.5567 20.6774C24.8848 19.8945 25.2794 19.2012 25.7311 18.6069L25.7597 17.4891C25.8405 14.4706 26.354 12.1029 26.7677 10.6455C26.9246 10.0937 27.1671 9.5843 27.4762 9.12208L27.5285 7.80147C27.538 7.5515 27.8043 1.72666 31.8555 1.20313C32.1075 1.17011 32.3357 1.1654 32.5116 1.1654H32.5164H32.5212C34.4659 1.1654 35.726 2.2549 35.8924 4.07546C35.9019 4.19337 35.9114 4.31128 35.9114 4.43863C35.9209 4.64615 35.9114 4.86311 35.8876 5.0895Z" fill="white"/>
<path d="M6.86843 35.5674C6.76382 35.4825 6.6402 35.407 6.50706 35.341C6.41671 35.2985 6.32162 35.2608 6.22176 35.2372C6.12191 35.2089 6.01255 35.19 5.90318 35.1806C5.84612 35.1759 5.78906 35.1712 5.732 35.1712C5.64642 35.1712 5.56083 35.1759 5.47048 35.19C5.42293 35.1948 5.38014 35.2042 5.33259 35.2136C5.27553 35.2231 5.21372 35.2419 5.15666 35.2561C4.97597 35.308 4.78577 35.3834 4.58607 35.4919C4.54327 35.5155 4.50048 35.5391 4.46244 35.5674C4.21043 35.7466 4.00121 36.0249 3.73018 36.3786C3.6969 36.421 3.66361 36.4682 3.62557 36.5106C3.42587 36.7701 3.32601 37.1049 3.29273 37.4728C3.2642 37.7888 3.28797 38.1284 3.34503 38.468C3.51146 39.5386 3.96793 40.5951 4.03925 40.7979C4.38161 41.8308 4.92367 42.7647 5.55607 43.6702C5.69397 43.873 5.84137 44.0711 5.98402 44.2739C6.08862 44.4154 6.19323 44.5616 6.3026 44.7031C6.38818 44.8211 6.47377 44.9342 6.56412 45.0474C6.74956 45.2927 6.935 45.538 7.12044 45.7879C7.15848 45.8351 7.19652 45.8823 7.22981 45.9294C7.25834 45.9624 7.28211 46.0002 7.31064 46.0332C7.40574 46.1511 7.50084 46.269 7.59593 46.3775C7.64824 46.4388 7.70054 46.4954 7.7576 46.5567C8.39476 47.2453 9.03192 47.6839 9.66908 47.7547C9.81648 47.7783 9.95438 47.7877 10.0923 47.7877C10.7342 47.7877 11.2525 47.5425 11.5901 47.1887C11.5948 47.184 11.5996 47.1793 11.6043 47.1746C11.6994 47.0708 11.7803 46.9623 11.8468 46.8444C11.8849 46.7784 11.9134 46.7124 11.9419 46.6416C11.9705 46.5756 11.9895 46.5048 12.0037 46.4341C12.1607 45.736 11.7993 44.972 10.7057 44.6701C10.6534 44.656 10.601 44.6418 10.5487 44.6371C10.4964 44.6277 10.4441 44.6277 10.3918 44.6277C10.2967 44.6277 10.2016 44.6371 10.1113 44.6607C9.8783 44.7126 9.65006 44.8258 9.44085 44.9673C9.39805 44.9956 9.36001 45.0239 9.31722 45.0569C9.04143 45.2597 8.80369 45.5097 8.63251 45.7172C8.60398 45.7549 8.57545 45.7879 8.55167 45.8209L8.22358 45.6559L8.0001 45.5427C8.05241 45.4389 8.14275 45.2738 8.29966 45.0522C8.39476 44.9154 8.51839 44.755 8.6753 44.5711C8.68481 44.5616 8.69432 44.5475 8.70383 44.5381C8.84173 44.3824 8.99864 44.2079 9.18883 44.0193C8.21408 43.4391 7.37721 42.7269 7.00632 41.6091C6.90647 41.3026 6.8399 40.9677 6.81613 40.5951C6.80662 40.4725 6.80662 40.3451 6.80662 40.2131C6.80662 40.081 6.81613 39.9442 6.82564 39.8027C6.83515 39.7084 6.85417 39.6094 6.87319 39.5056C6.89696 39.4018 6.92074 39.2934 6.95402 39.1802C6.9873 39.067 7.0301 38.9538 7.07765 38.8406C7.10142 38.784 7.12995 38.7227 7.15373 38.6661C7.21079 38.5482 7.2726 38.4302 7.34868 38.3171C7.38672 38.2605 7.42476 38.1991 7.46755 38.1425C7.59118 37.968 7.74334 37.7982 7.91452 37.6379C8.09045 37.4775 8.29015 37.3219 8.51839 37.1804C8.49937 37.1474 8.4756 37.1144 8.44707 37.0766C8.08569 36.5578 7.32015 35.9258 6.86843 35.5674Z" fill="white"/>
<path d="M63.5614 45.8964L56.5526 30.0255H48.8829L60.7417 55.2303H66.3858L78.2445 30.0255H70.5749L63.5614 45.8964Z" fill="white"/>
<path d="M125.932 29.2803C118.133 29.2803 111.814 35.256 111.814 42.6279C111.814 49.9998 118.133 55.9802 125.932 55.9802C131.961 55.9802 137.106 52.4052 139.126 47.3727H131.371C130.021 48.7593 128.081 49.6271 125.927 49.6271C122.551 49.6271 119.707 47.4906 118.818 44.5711H139.892C139.992 43.9344 140.044 43.2835 140.044 42.6232C140.044 41.6705 139.94 40.7413 139.74 39.8452C138.389 33.8081 132.722 29.2803 125.932 29.2803ZM119.137 39.8499C120.273 37.3643 122.888 35.6286 125.932 35.6286C128.975 35.6286 131.59 37.369 132.726 39.8499H119.137Z" fill="white"/>
<path d="M95.8376 29.2803C93.0274 29.2803 90.4217 30.134 88.263 31.5961V22.0641L81.3446 24.2384V55.235H87.9302L87.9539 53.4428C90.1697 55.0369 92.8848 55.985 95.8328 55.985C103.265 55.985 109.294 50.0092 109.294 42.6326C109.294 35.2561 103.274 29.2803 95.8376 29.2803ZM95.2242 49.5894C91.3489 49.5894 88.2059 46.4718 88.2059 42.6279C88.2059 38.784 91.3489 35.6664 95.2242 35.6664C99.0994 35.6664 102.242 38.784 102.242 42.6279C102.242 46.4718 99.0994 49.5894 95.2242 49.5894Z" fill="white"/>
<path d="M157.057 36.0013V30.0255H150.001V22.0122L142.945 24.2337V42.6279C142.945 50.0045 148.308 55.9755 156.12 55.9755H157.062V49.6271C153.158 49.6271 150.006 46.5001 150.006 42.6279V36.0013H157.057Z" fill="white"/>
</svg>
